<?xml version="1.0" encoding="UTF-8" standalone="no"?>
<svg
   width="700pt"
   height="700pt"
   version="1.1"
   viewBox="0 0 700 700"
   id="svg438"
   sodipodi:docname="noun-game-3971461.svg"
   inkscape:version="1.2.1 (9c6d41e410, 2022-07-14)"
   inkscape:export-filename="rock2.svg"
   inkscape:export-xdpi="96"
   inkscape:export-ydpi="96"
   xmlns:inkscape="http://www.inkscape.org/namespaces/inkscape"
   xmlns:sodipodi="http://sodipodi.sourceforge.net/DTD/sodipodi-0.dtd"
   xmlns="http://www.w3.org/2000/svg"
   xmlns:svg="http://www.w3.org/2000/svg">
  <sodipodi:namedview
     id="namedview440"
     pagecolor="#ffffff"
     bordercolor="#ffffff"
     borderopacity="1"
     inkscape:showpageshadow="2"
     inkscape:pageopacity="0.0"
     inkscape:pagecheckerboard="0"
     inkscape:deskcolor="#b5b5b5"
     inkscape:document-units="pt"
     showgrid="false"
     inkscape:zoom="0.19901786"
     inkscape:cx="-917.00315"
     inkscape:cy="153.25258"
     inkscape:window-width="1700"
     inkscape:window-height="881"
     inkscape:window-x="2391"
     inkscape:window-y="-9"
     inkscape:window-maximized="1"
     inkscape:current-layer="svg438" />
  <defs
     id="defs350">
    <symbol
       id="h"
       overflow="visible">
      <path
         d="m18.766-1.125c-0.96875 0.5-1.9805 0.875-3.0312 1.125-1.043 0.25781-2.1367 0.39062-3.2812 0.39062-3.3984 0-6.0898-0.94531-8.0781-2.8438-1.9922-1.9062-2.9844-4.4844-2.9844-7.7344 0-3.2578 0.99219-5.8359 2.9844-7.7344 1.9883-1.9062 4.6797-2.8594 8.0781-2.8594 1.1445 0 2.2383 0.13281 3.2812 0.39062 1.0508 0.25 2.0625 0.625 3.0312 1.125v4.2188c-0.98047-0.65625-1.9453-1.1406-2.8906-1.4531-0.94922-0.3125-1.9492-0.46875-3-0.46875-1.875 0-3.3516 0.60547-4.4219 1.8125-1.0742 1.1992-1.6094 2.8555-1.6094 4.9688 0 2.1055 0.53516 3.7617 1.6094 4.9688 1.0703 1.1992 2.5469 1.7969 4.4219 1.7969 1.0508 0 2.0508-0.14844 3-0.45312 0.94531-0.3125 1.9102-0.80078 2.8906-1.4688z"
         id="path287" />
    </symbol>
    <symbol
       id="c"
       overflow="visible">
      <path
         d="m13.734-11.141c-0.4375-0.19531-0.87109-0.34375-1.2969-0.4375-0.41797-0.10156-0.83984-0.15625-1.2656-0.15625-1.2617 0-2.2305 0.40625-2.9062 1.2188-0.67969 0.80469-1.0156 1.9531-1.0156 3.4531v7.0625h-4.8906v-15.312h4.8906v2.5156c0.625-1 1.3438-1.7266 2.1562-2.1875 0.82031-0.46875 1.8008-0.70312 2.9375-0.70312 0.16406 0 0.34375 0.011719 0.53125 0.03125 0.19531 0.011719 0.47656 0.039062 0.84375 0.078125z"
         id="path290" />
    </symbol>
    <symbol
       id="a"
       overflow="visible">
      <path
         d="m17.641-7.7031v1.4062h-11.453c0.125 1.1484 0.53906 2.0078 1.25 2.5781 0.70703 0.57422 1.7031 0.85938 2.9844 0.85938 1.0312 0 2.082-0.14844 3.1562-0.45312 1.082-0.3125 2.1914-0.77344 3.3281-1.3906v3.7656c-1.1562 0.4375-2.3125 0.76562-3.4688 0.98438-1.1562 0.22656-2.3125 0.34375-3.4688 0.34375-2.7734 0-4.9297-0.70312-6.4688-2.1094-1.5312-1.4062-2.2969-3.3789-2.2969-5.9219 0-2.5 0.75391-4.4609 2.2656-5.8906 1.5078-1.4375 3.582-2.1562 6.2188-2.1562 2.4062 0 4.332 0.73047 5.7812 2.1875 1.4453 1.4492 2.1719 3.3828 2.1719 5.7969zm-5.0312-1.625c0-0.92578-0.27344-1.6719-0.8125-2.2344-0.54297-0.57031-1.25-0.85938-2.125-0.85938-0.94922 0-1.7188 0.26562-2.3125 0.79688s-0.96484 1.2969-1.1094 2.2969z"
         id="path293" />
    </symbol>
    <symbol
       id="l"
       overflow="visible">
      <path
         d="m9.2188-6.8906c-1.0234 0-1.793 0.17188-2.3125 0.51562-0.51172 0.34375-0.76562 0.85547-0.76562 1.5312 0 0.625 0.20703 1.1172 0.625 1.4688 0.41406 0.34375 0.98828 0.51562 1.7188 0.51562 0.92578 0 1.7031-0.32812 2.3281-0.98438 0.63281-0.66406 0.95312-1.4922 0.95312-2.4844v-0.5625zm7.4688-1.8438v8.7344h-4.9219v-2.2656c-0.65625 0.92969-1.3984 1.6055-2.2188 2.0312-0.82422 0.41406-1.8242 0.625-3 0.625-1.5859 0-2.8711-0.45703-3.8594-1.375-0.99219-0.92578-1.4844-2.1289-1.4844-3.6094 0-1.7891 0.61328-3.1016 1.8438-3.9375 1.2383-0.84375 3.1797-1.2656 5.8281-1.2656h2.8906v-0.39062c0-0.76953-0.30859-1.332-0.92188-1.6875-0.61719-0.36328-1.5703-0.54688-2.8594-0.54688-1.0547 0-2.0312 0.10547-2.9375 0.3125-0.89844 0.21094-1.7305 0.52344-2.5 0.9375v-3.7344c1.0391-0.25 2.0859-0.44141 3.1406-0.57812 1.0625-0.13281 2.125-0.20312 3.1875-0.20312 2.7578 0 4.75 0.54688 5.9688 1.6406 1.2266 1.0859 1.8438 2.8555 1.8438 5.3125z"
         id="path296" />
    </symbol>
    <symbol
       id="b"
       overflow="visible">
      <path
         d="m7.7031-19.656v4.3438h5.0469v3.5h-5.0469v6.5c0 0.71094 0.14062 1.1875 0.42188 1.4375s0.83594 0.375 1.6719 0.375h2.5156v3.5h-4.1875c-1.9375 0-3.3125-0.39844-4.125-1.2031-0.80469-0.8125-1.2031-2.1797-1.2031-4.1094v-6.5h-2.4219v-3.5h2.4219v-4.3438z"
         id="path299" />
    </symbol>
    <symbol
       id="e"
       overflow="visible">
      <path
         d="m12.766-13.078v-8.2031h4.9219v21.281h-4.9219v-2.2188c-0.66797 0.90625-1.4062 1.5703-2.2188 1.9844s-1.7578 0.625-2.8281 0.625c-1.8867 0-3.4336-0.75-4.6406-2.25-1.2109-1.5-1.8125-3.4258-1.8125-5.7812 0-2.3633 0.60156-4.2969 1.8125-5.7969 1.207-1.5 2.7539-2.25 4.6406-2.25 1.0625 0 2 0.21484 2.8125 0.64062 0.82031 0.42969 1.5664 1.0859 2.2344 1.9688zm-3.2188 9.9219c1.0391 0 1.8359-0.37891 2.3906-1.1406 0.55078-0.76953 0.82812-1.8828 0.82812-3.3438 0-1.457-0.27734-2.5664-0.82812-3.3281-0.55469-0.76953-1.3516-1.1562-2.3906-1.1562-1.043 0-1.8398 0.38672-2.3906 1.1562-0.55469 0.76172-0.82812 1.8711-0.82812 3.3281 0 1.4609 0.27344 2.5742 0.82812 3.3438 0.55078 0.76172 1.3477 1.1406 2.3906 1.1406z"
         id="path302" />
    </symbol>
    <symbol
       id="k"
       overflow="visible">
      <path
         d="m10.5-3.1562c1.0508 0 1.8516-0.37891 2.4062-1.1406 0.55078-0.76953 0.82812-1.8828 0.82812-3.3438 0-1.457-0.27734-2.5664-0.82812-3.3281-0.55469-0.76953-1.3555-1.1562-2.4062-1.1562-1.0547 0-1.8594 0.38672-2.4219 1.1562-0.55469 0.77344-0.82812 1.8828-0.82812 3.3281 0 1.4492 0.27344 2.5586 0.82812 3.3281 0.5625 0.77344 1.3672 1.1562 2.4219 1.1562zm-3.25-9.9219c0.67578-0.88281 1.4219-1.5391 2.2344-1.9688 0.82031-0.42578 1.7656-0.64062 2.8281-0.64062 1.8945 0 3.4453 0.75 4.6562 2.25 1.207 1.5 1.8125 3.4336 1.8125 5.7969 0 2.3555-0.60547 4.2812-1.8125 5.7812-1.2109 1.5-2.7617 2.25-4.6562 2.25-1.0625 0-2.0078-0.21094-2.8281-0.625-0.8125-0.42578-1.5586-1.0859-2.2344-1.9844v2.2188h-4.8906v-21.281h4.8906z"
         id="path305" />
    </symbol>
    <symbol
       id="j"
       overflow="visible">
      <path
         d="m0.34375-15.312h4.8906l4.125 10.391 3.5-10.391h4.8906l-6.4375 16.766c-0.64844 1.6953-1.4023 2.8828-2.2656 3.5625-0.86719 0.6875-2 1.0312-3.4062 1.0312h-2.8438v-3.2188h1.5312c0.83203 0 1.4375-0.13672 1.8125-0.40625 0.38281-0.26172 0.67969-0.73047 0.89062-1.4062l0.14062-0.42188z"
         id="path308" />
    </symbol>
    <symbol
       id="i"
       overflow="visible">
      <path
         d="m14.953-3.7188h-8.2188l-1.3125 3.7188h-5.2812l7.5625-20.406h6.2656l7.5625 20.406h-5.2812zm-6.9062-3.7812h5.5781l-2.7812-8.125z"
         id="path311" />
    </symbol>
    <symbol
       id="u"
       overflow="visible">
      <path
         d="m2.3594-15.312h4.8906v15.312h-4.8906zm0-5.9688h4.8906v4h-4.8906z"
         id="path314" />
    </symbol>
    <symbol
       id="g"
       overflow="visible">
      <path
         d="m17.75-9.3281v9.3281h-4.9219v-7.1406c0-1.3203-0.03125-2.2344-0.09375-2.7344s-0.16797-0.86719-0.3125-1.1094c-0.1875-0.3125-0.44922-0.55469-0.78125-0.73438-0.32422-0.17578-0.69531-0.26562-1.1094-0.26562-1.0234 0-1.8242 0.39844-2.4062 1.1875-0.58594 0.78125-0.875 1.8711-0.875 3.2656v7.5312h-4.8906v-15.312h4.8906v2.2344c0.73828-0.88281 1.5195-1.5391 2.3438-1.9688 0.83203-0.42578 1.75-0.64062 2.75-0.64062 1.7695 0 3.1133 0.54688 4.0312 1.6406 0.91406 1.0859 1.375 2.6562 1.375 4.7188z"
         id="path317" />
    </symbol>
    <symbol
       id="d"
       overflow="visible">
      <path
         d="m9.6406-12.188c-1.0859 0-1.9141 0.39062-2.4844 1.1719-0.57422 0.78125-0.85938 1.9062-0.85938 3.375s0.28516 2.5938 0.85938 3.375c0.57031 0.77344 1.3984 1.1562 2.4844 1.1562 1.0625 0 1.875-0.38281 2.4375-1.1562 0.57031-0.78125 0.85938-1.9062 0.85938-3.375s-0.28906-2.5938-0.85938-3.375c-0.5625-0.78125-1.375-1.1719-2.4375-1.1719zm0-3.5c2.6328 0 4.6914 0.71484 6.1719 2.1406 1.4766 1.418 2.2188 3.3867 2.2188 5.9062 0 2.5117-0.74219 4.4805-2.2188 5.9062-1.4805 1.418-3.5391 2.125-6.1719 2.125-2.6484 0-4.7148-0.70703-6.2031-2.125-1.4922-1.4258-2.2344-3.3945-2.2344-5.9062 0-2.5195 0.74219-4.4883 2.2344-5.9062 1.4883-1.4258 3.5547-2.1406 6.2031-2.1406z"
         id="path320" />
    </symbol>
    <symbol
       id="t"
       overflow="visible">
      <path
         d="m9.5469-12.125c-1.043 0-1.8398 0.38672-2.3906 1.1562-0.55469 0.76172-0.82812 1.8711-0.82812 3.3281 0 1.4609 0.27344 2.5742 0.82812 3.3438 0.55078 0.76172 1.3477 1.1406 2.3906 1.1406 1.0391 0 1.8359-0.37891 2.3906-1.1406 0.55078-0.76953 0.82812-1.8828 0.82812-3.3438 0-1.457-0.27734-2.5664-0.82812-3.3281-0.55469-0.76953-1.3516-1.1562-2.3906-1.1562zm3.2188 9.9062c-0.66797 0.90625-1.4062 1.5703-2.2188 1.9844s-1.7578 0.625-2.8281 0.625c-1.8867 0-3.4336-0.75-4.6406-2.25-1.2109-1.5-1.8125-3.4258-1.8125-5.7812 0-2.3633 0.60156-4.2891 1.8125-5.7812 1.207-1.4883 2.7539-2.2344 4.6406-2.2344 1.0703 0 2.0156 0.21484 2.8281 0.64062 0.8125 0.41797 1.5508 1.0742 2.2188 1.9688v-2.2656h4.9219v21.141h-4.9219z"
         id="path323" />
    </symbol>
    <symbol
       id="f"
       overflow="visible">
      <path
         d="m2.1875-5.9688v-9.3438h4.9219v1.5312c0 0.83594-0.007813 1.875-0.015625 3.125-0.011719 1.25-0.015625 2.0859-0.015625 2.5 0 1.2422 0.03125 2.1328 0.09375 2.6719 0.070313 0.54297 0.17969 0.93359 0.32812 1.1719 0.20703 0.32422 0.47266 0.57422 0.79688 0.75 0.32031 0.16797 0.69141 0.25 1.1094 0.25 1.0195 0 1.8203-0.39062 2.4062-1.1719 0.58203-0.78125 0.875-1.8672 0.875-3.2656v-7.5625h4.8906v15.312h-4.8906v-2.2188c-0.74219 0.89844-1.5234 1.5586-2.3438 1.9844-0.82422 0.41406-1.7344 0.625-2.7344 0.625-1.7617 0-3.1055-0.53906-4.0312-1.625-0.92969-1.082-1.3906-2.6602-1.3906-4.7344z"
         id="path326" />
    </symbol>
    <symbol
       id="s"
       overflow="visible">
      <path
         d="m12.422-21.281v3.2188h-2.7031c-0.6875 0-1.1719 0.125-1.4531 0.375-0.27344 0.25-0.40625 0.6875-0.40625 1.3125v1.0625h4.1875v3.5h-4.1875v11.812h-4.8906v-11.812h-2.4375v-3.5h2.4375v-1.0625c0-1.6641 0.46094-2.8984 1.3906-3.7031 0.92578-0.80078 2.3672-1.2031 4.3281-1.2031z"
         id="path329" />
    </symbol>
    <symbol
       id="r"
       overflow="visible">
      <path
         d="m16.547-12.766c0.61328-0.94531 1.3477-1.6719 2.2031-2.1719 0.85156-0.5 1.7891-0.75 2.8125-0.75 1.7578 0 3.0977 0.54688 4.0156 1.6406 0.92578 1.0859 1.3906 2.6562 1.3906 4.7188v9.3281h-4.9219v-7.9844-0.35938c0.007813-0.13281 0.015625-0.32031 0.015625-0.5625 0-1.082-0.16406-1.8633-0.48438-2.3438-0.3125-0.48828-0.82422-0.73438-1.5312-0.73438-0.92969 0-1.6484 0.38672-2.1562 1.1562-0.51172 0.76172-0.77344 1.8672-0.78125 3.3125v7.5156h-4.9219v-7.9844c0-1.6953-0.14844-2.7852-0.4375-3.2656-0.29297-0.48828-0.8125-0.73438-1.5625-0.73438-0.9375 0-1.6641 0.38672-2.1719 1.1562-0.51172 0.76172-0.76562 1.8594-0.76562 3.2969v7.5312h-4.9219v-15.312h4.9219v2.2344c0.60156-0.86328 1.2891-1.5156 2.0625-1.9531 0.78125-0.4375 1.6406-0.65625 2.5781-0.65625 1.0625 0 2 0.25781 2.8125 0.76562 0.8125 0.51172 1.4258 1.2305 1.8438 2.1562z"
         id="path332" />
    </symbol>
    <symbol
       id="q"
       overflow="visible">
      <path
         d="m17.75-9.3281v9.3281h-4.9219v-7.1094c0-1.3438-0.03125-2.2656-0.09375-2.7656s-0.16797-0.86719-0.3125-1.1094c-0.1875-0.3125-0.44922-0.55469-0.78125-0.73438-0.32422-0.17578-0.69531-0.26562-1.1094-0.26562-1.0234 0-1.8242 0.39844-2.4062 1.1875-0.58594 0.78125-0.875 1.8711-0.875 3.2656v7.5312h-4.8906v-21.281h4.8906v8.2031c0.73828-0.88281 1.5195-1.5391 2.3438-1.9688 0.83203-0.42578 1.75-0.64062 2.75-0.64062 1.7695 0 3.1133 0.54688 4.0312 1.6406 0.91406 1.0859 1.375 2.6562 1.375 4.7188z"
         id="path335" />
    </symbol>
    <symbol
       id="p"
       overflow="visible">
      <path
         d="m2.5781-20.406h5.875l7.4219 14v-14h4.9844v20.406h-5.875l-7.4219-14v14h-4.9844z"
         id="path338" />
    </symbol>
    <symbol
       id="o"
       overflow="visible">
      <path
         d="m2.5781-20.406h8.7344c2.5938 0 4.582 0.57812 5.9688 1.7344 1.3945 1.1484 2.0938 2.7891 2.0938 4.9219 0 2.1367-0.69922 3.7812-2.0938 4.9375-1.3867 1.1562-3.375 1.7344-5.9688 1.7344h-3.4844v7.0781h-5.25zm5.25 3.8125v5.7031h2.9219c1.0195 0 1.8047-0.25 2.3594-0.75 0.5625-0.5 0.84375-1.2031 0.84375-2.1094 0-0.91406-0.28125-1.6172-0.84375-2.1094-0.55469-0.48828-1.3398-0.73438-2.3594-0.73438z"
         id="path341" />
    </symbol>
    <symbol
       id="n"
       overflow="visible">
      <path
         d="m2.3594-15.312h4.8906v15.031c0 2.0508-0.49609 3.6172-1.4844 4.7031-0.98047 1.082-2.4062 1.625-4.2812 1.625h-2.4219v-3.2188h0.85938c0.92578 0 1.5625-0.21094 1.9062-0.625 0.35156-0.41797 0.53125-1.2461 0.53125-2.4844zm0-5.9688h4.8906v4h-4.8906z"
         id="path344" />
    </symbol>
    <symbol
       id="m"
       overflow="visible">
      <path
         d="m14.719-14.828v3.9844c-0.65625-0.45703-1.3242-0.79688-2-1.0156-0.66797-0.21875-1.3594-0.32812-2.0781-0.32812-1.3672 0-2.4336 0.40234-3.2031 1.2031-0.76172 0.79297-1.1406 1.9062-1.1406 3.3438 0 1.4297 0.37891 2.543 1.1406 3.3438 0.76953 0.79297 1.8359 1.1875 3.2031 1.1875 0.75781 0 1.4844-0.10938 2.1719-0.32812 0.6875-0.22656 1.3203-0.56641 1.9062-1.0156v4c-0.76172 0.28125-1.5391 0.48828-2.3281 0.625-0.78125 0.14453-1.5742 0.21875-2.375 0.21875-2.7617 0-4.9219-0.70703-6.4844-2.125-1.5547-1.4141-2.3281-3.3828-2.3281-5.9062 0-2.5312 0.77344-4.5039 2.3281-5.9219 1.5625-1.4141 3.7227-2.125 6.4844-2.125 0.80078 0 1.5938 0.074219 2.375 0.21875 0.78125 0.13672 1.5547 0.35156 2.3281 0.64062z"
         id="path347" />
    </symbol>
  </defs>
  <g
     id="g1963"
     transform="translate(-589.7712,-580.34994)"
     style="fill:#ffffff"
     inkscape:export-filename="rockpaperscissors.svg"
     inkscape:export-xdpi="96"
     inkscape:export-ydpi="96">
    <path
       d="m 395.36,255.92 c 5.0391,3.3594 11.762,5.0391 18.48,2.8008 8.9609,-2.8008 15.121,-11.762 15.121,-21.281 v -19.602 c 7.8398,-4.4805 13.441,-12.32 14.559,-21.84 l 3.9219,-28.559 c 2.2383,-15.121 -2.8008,-30.801 -12.879,-42.559 l -25.199,-29.121 v -22.961 c 0,-3.9219 -2.8008,-6.7188 -6.7188,-6.7188 -3.9219,0 -6.7188,2.8008 -6.7188,6.7188 v 25.762 c 0,1.6797 0.55859,3.3594 1.6797,4.4805 l 26.879,30.801 c 7.8398,8.9609 11.199,20.16 9.5195,31.922 l -3.9219,28.559 c -1.1211,8.3984 -8.3984,14.559 -16.801,14 l -34.719,-0.55859 c -4.4805,0 -7.8398,-3.3594 -7.8398,-7.8398 0,-2.2383 1.1211,-3.9219 2.2383,-5.6016 1.6797,-1.6797 3.3594,-2.2383 5.6016,-2.2383 l 23.52,1.1211 c 3.3594,0 6.1602,-2.2383 6.7188,-5.6016 l 2.2383,-15.121 c 0.55859,-3.9219 -2.2383,-7.2812 -5.6016,-7.8398 -3.3594,-0.55859 -7.2812,2.2383 -7.8398,5.6016 l -1.1211,7.8398 c -23.52,-11.199 -21.84,-34.16 -21.84,-35.281 0.55859,-3.9219 -2.2383,-6.7188 -6.1602,-7.2812 h -0.55859 c -3.3594,0 -6.1602,2.8008 -6.7188,6.1602 -1.1211,9.5195 1.6797,25.199 13.441,37.52 -4.4805,0.55859 -8.9609,2.2383 -12.32,5.6016 -1.6797,1.6797 -2.8008,3.3594 -3.9219,5.0391 -3.3594,-2.2383 -7.2812,-3.3594 -11.762,-3.3594 -6.7188,0 -12.879,3.3594 -16.801,8.3984 -3.3594,-2.8008 -7.8398,-3.9219 -12.32,-3.9219 -3.3594,0 -6.1602,0.55859 -8.9609,2.2383 -3.3594,-19.039 -3.9219,-38.641 -3.9219,-52.641 0,-12.32 6.7188,-23.52 16.801,-30.238 l 6.1602,-3.9219 c 2.2383,-1.1211 3.3594,-3.3594 3.3594,-5.6016 v -26.879 c 0,-3.9219 -2.8008,-6.7188 -6.7188,-6.7188 -3.9219,0 -6.7188,2.8008 -6.7188,6.7188 v 22.961 l -1.1172,0.5625 c -14.559,8.9609 -22.961,24.641 -23.52,41.441 0,17.359 0.55859,42.559 6.1602,65.52 -0.55859,2.2383 -1.1211,4.4805 -1.1211,6.7188 v 21.84 c 0,11.762 9.5195,22.398 21.281,22.398 5.0391,0 8.9609,-1.6797 12.879,-3.9219 3.9219,5.0391 10.078,8.3984 16.801,8.3984 4.4805,0 8.9609,-1.6797 12.32,-3.9219 3.9219,5.0391 10.078,8.9609 17.359,8.9609 6.7227,-0.55469 12.883,-3.9141 16.801,-8.9531 z m 3.9219,-34.723 13.441,0.55859 h 2.2383 v 16.801 c 0,4.4805 -3.3594,7.8398 -7.8398,7.8398 -4.4805,0 -7.8398,-3.3594 -7.8398,-7.8398 z m -71.68,12.879 c 0,4.4805 -3.3594,7.8398 -7.8398,7.8398 -4.4804,0 -7.8398,-3.3594 -7.8398,-7.8398 v -22.961 c 0,-4.4805 3.3594,-7.8398 7.8398,-7.8398 4.4804,0 7.8398,3.3594 7.8398,7.8398 z m 29.117,3.9219 c 0,4.4805 -3.3594,7.8398 -7.8398,7.8398 -4.4805,0 -7.8398,-3.3594 -7.8398,-7.8398 v -30.801 c 0,-4.4805 3.3594,-7.8398 7.8398,-7.8398 4.4805,0 7.8398,3.3594 7.8398,7.8398 z m 13.441,5.0391 v -24.078 c 2.8008,1.1211 5.6016,1.6797 8.3984,2.2383 h 7.2812 v 21.84 c 0,4.4805 -3.3594,7.8398 -7.8398,7.8398 -4.4804,0 -7.8398,-3.3594 -7.8398,-7.8398 z"
       id="path352"
       style="fill:#ffffff" />
    <path
       d="m 324.8,320.88 c -5.0391,-2.2383 -11.199,-2.8008 -16.238,-0.55859 l -50.398,18.48 33.602,-28 c 8.9609,-7.2812 10.078,-21.281 2.8008,-30.238 -7.8398,-8.9609 -21.281,-10.078 -30.238,-2.8008 l -59.93,49.84 c -7.8398,-5.6016 -18.48,-6.7188 -28,-2.8008 l -26.879,11.199 c -14.559,6.1602 -25.199,17.922 -30.238,32.48 l -12.32,36.398 -20.16,11.762 c -3.3594,1.6797 -4.4805,6.1602 -2.2383,8.9609 2.2383,2.8008 6.1602,4.4805 8.9609,2.2383 l 22.398,-12.879 c 1.6797,-0.55859 2.2383,-2.2383 2.8008,-3.9219 l 12.879,-38.641 c 3.9219,-11.199 11.762,-20.16 22.961,-24.641 l 26.879,-11.199 c 7.8398,-3.3594 16.238,0 20.719,6.7188 v 0.55859 l 16.801,30.238 c 2.2383,3.9219 0.55859,8.3984 -2.8008,10.641 -1.6797,1.6836 -3.9219,1.6836 -6.1602,1.125 -2.2383,-0.5586 -3.9219,-2.2383 -4.4805,-3.9219 l -11.199,-21.281 c -1.6797,-2.8008 -5.0391,-4.4805 -8.3984,-3.3594 l -14,5.6016 c -3.3594,1.1211 -5.0391,5.0391 -3.9219,8.3984 1.1211,3.3594 5.0391,5.0391 8.3984,3.9219 l 7.2812,-2.8008 c 2.2383,25.762 -18.48,35.84 -19.602,36.398 -3.3594,1.6797 -5.0391,5.6016 -3.3594,8.9609 0,0 0,0.55859 0.55859,0.55859 1.6797,2.8008 5.6016,4.4805 8.3984,2.8008 8.3984,-3.9219 20.719,-14 25.762,-30.238 2.8008,3.3594 6.7188,6.1602 11.199,7.2812 2.2383,0.55859 4.4805,1.1211 7.2812,0.55859 0,2.8008 0,6.1602 1.1211,8.9609 0.55859,1.1211 1.1211,2.2383 1.6797,3.3594 2.8008,4.4805 7.2812,7.8398 11.762,9.5195 -1.6797,5.043 -1.6797,9.5195 0,14 0.55859,1.1211 1.1211,2.2383 1.6797,3.3594 1.6797,2.8008 3.9219,5.0391 6.1602,6.7188 -14,11.199 -29.121,20.16 -40.32,26.879 -10.641,6.1602 -23.52,6.1602 -34.719,0.55859 l -6.7188,-3.3594 c -2.2383,-1.1211 -4.4805,-1.1211 -6.7188,0 l -22.965,12.887 c -3.3594,1.6797 -4.4805,6.1602 -2.2383,8.9609 1.6797,3.3594 6.1602,4.4805 8.9609,2.2383 l 20.16,-11.762 3.3594,1.6797 c 15.121,7.8398 33.039,7.8398 47.602,-0.55859 14,-7.8398 33.602,-20.16 50.398,-34.719 1.1211,0 1.6797,-0.55859 2.8008,-0.55859 l 21.281,-7.8398 c 11.199,-3.9219 16.801,-16.238 12.879,-27.441 -1.6797,-4.4805 -4.4805,-7.8398 -8.3984,-10.078 0.55859,-0.55859 1.1211,-1.6797 1.6797,-2.2383 2.2383,-5.0391 2.8008,-11.199 0.55859,-16.238 -1.1211,-2.8008 -2.2383,-5.0391 -3.9219,-6.7188 l 43.121,-15.68 c 5.6016,-1.6797 9.5195,-5.6016 12.32,-11.199 2.2383,-5.0391 2.8008,-11.199 0.55859,-16.238 -2.2383,-5.6094 -6.1602,-9.5312 -11.199,-12.332 z m -110.88,16.801 c 0,0 0,-0.55859 -0.55859,-0.55859 l 58.801,-49.281 c 3.3594,-2.8008 8.3984,-2.2383 11.199,1.1211 0.55859,0.55859 0.55859,0.55859 0.55859,1.1211 1.6797,3.3594 1.1211,7.8398 -1.6797,10.078 l -61.039,50.961 z m 17.359,70.559 c -1.6797,-1.1211 -3.3594,-2.2383 -3.9219,-4.4805 -1.6797,-3.9219 0.55859,-8.9609 4.4805,-10.078 l 29.121,-10.641 c 2.2383,-0.55859 3.9219,-0.55859 6.1602,0 1.6797,0.55859 2.8008,1.6797 3.3594,3.3594 0,0.55859 0.55859,0.55859 0.55859,1.1211 0.55859,2.2383 0.55859,3.9219 -0.55859,6.1602 -1.1211,1.6797 -2.2383,3.3594 -4.4805,3.9219 l -29.121,10.641 c -1.6797,1.1172 -3.918,1.1172 -5.5977,-0.004 z m 45.918,14.562 c -1.1211,1.6797 -2.2383,3.3594 -4.4805,3.9219 l -21.281,7.8398 c -2.2383,0.55859 -3.9219,0.55859 -6.1602,0 -2.2383,-0.55859 -3.3594,-2.2383 -3.9219,-4.4805 -0.55859,-2.2383 -0.55859,-3.9219 0,-6.1602 1.1211,-1.6797 2.8008,-3.3594 4.4805,-3.9219 l 21.281,-7.8398 c 3.9219,-1.6797 8.9609,0.55859 10.078,4.4805 1.125,2.2383 1.125,3.918 0.004,6.1602 z m 45.359,-78.961 c -1.1211,1.6797 -2.2383,3.3594 -4.4805,3.9219 l -85.121,30.801 c 0,-3.3594 -0.55859,-7.2812 -2.2383,-10.641 l -2.2383,-4.4805 84.559,-30.801 c 2.2383,-0.55859 3.9219,-0.55859 6.1602,0 1.6797,1.1211 3.3594,2.2383 3.9219,4.4805 0.55859,2.8008 0.55859,4.4805 -0.5625,6.7188 z"
       id="path354"
       style="fill:#ffffff" />
    <path
       d="M 612.64,411.6 593.038,400.401 582.96,367.362 c -4.4805,-15.68 -15.121,-28.559 -29.68,-36.398 l -42,-22.398 c -10.078,-5.6016 -22.398,-2.2383 -28.559,7.8398 -0.55859,0.55859 -0.55859,1.6797 -1.1211,2.2383 l -45.359,-25.199 c -10.078,-5.6016 -23.52,-2.2383 -29.121,7.8398 -1.6797,2.8008 -2.2383,6.1602 -2.8008,9.5195 -8.3984,-1.1211 -16.801,2.8008 -21.281,10.641 -4.4805,7.8398 -3.3594,17.359 1.6797,23.52 -2.8008,1.6797 -5.0391,3.9219 -6.7188,7.2812 -5.6016,10.078 -2.2383,23.52 7.8398,29.121 l 7.8398,4.4805 c -2.2383,1.6797 -3.9219,3.9219 -5.0391,6.1602 -5.6016,10.078 -2.2383,23.52 7.8398,29.121 l 28.559,16.238 c 6.7188,3.9219 14,8.3984 21.84,15.121 l 1.1211,0.55859 c 17.922,14 64.961,50.398 99.121,28.559 l 19.602,11.199 c 3.3594,1.6797 7.2812,0.55859 8.9609,-2.8008 1.6797,-3.3594 0.55859,-7.2812 -2.8008,-8.9609 l -22.961,-12.879 c -2.2383,-1.1211 -5.0391,-1.1211 -7.2812,0.55859 -26.32,20.719 -70,-13.441 -86.801,-26.32 l -1.1211,-0.55859 c -8.3984,-6.7188 -16.238,-11.762 -23.52,-15.68 l -28.559,-16.238 c -3.9219,-2.2383 -5.0391,-6.7188 -2.8008,-10.641 2.2383,-3.9219 7.2812,-5.0391 10.641,-2.8008 l 42,23.52 c 3.3594,1.6797 7.2812,0.55859 8.9609,-2.8008 1.6797,-3.3594 0.55859,-7.2812 -2.8008,-8.9609 l -65.52,-38.641 c -3.9219,-2.2383 -5.0391,-7.2812 -2.8008,-10.641 2.2383,-3.9219 6.7188,-5.0391 10.641,-2.8008 l 57.68,32.48 c 3.3594,1.6797 7.2812,0.55859 8.9609,-2.2383 1.6797,-3.3594 0.55859,-7.2812 -2.8008,-8.9609 l -67.199,-38.078 c -3.9219,-2.2383 -5.0391,-7.2812 -2.8008,-10.641 2.2383,-3.9219 7.2812,-5.0391 10.641,-2.8008 l 62.16,35.281 c 3.3594,1.6797 7.2812,0.55859 8.9609,-2.8008 1.6797,-3.35939 0.55859,-7.2812 -2.8008,-8.9609 l -52.641,-29.68 c -3.9219,-2.2383 -5.0391,-7.2812 -2.8008,-10.641 2.2383,-3.9219 6.7188,-5.0391 10.641,-2.8008 l 50.398,28.559 c 1.6797,5.6016 5.0391,10.641 10.078,13.441 l 14.559,8.3984 c -11.762,47.039 25.199,62.719 25.762,62.719 3.3594,1.1211 6.7188,0 8.3984,-2.8008 0,0 0,-0.55859 0.55859,-0.55859 1.1211,-3.3594 -0.55859,-7.2812 -3.9219,-8.3984 -1.1211,-0.55859 -25.199,-10.641 -19.039,-43.121 1.6797,1.1211 3.9219,2.8008 5.6016,4.4805 l 3.3594,2.8008 c 2.8008,2.2383 6.7188,2.2383 9.5195,-0.55859 2.2383,-2.8008 2.2383,-6.7188 -0.55859,-9.5195 l -3.3594,-2.8008 c -3.3555,-6.1602 -7.2773,-9.5195 -12.316,-11.762 l -21.281,-12.32 c -2.2383,-1.1211 -3.3594,-2.8008 -3.9219,-5.0391 -0.55859,-2.2383 0,-4.4805 1.1211,-6.1602 2.2383,-3.9219 7.2812,-5.0391 10.641,-2.8008 l 42,22.398 c 11.199,6.1602 19.602,16.238 23.52,28.559 l 10.641,35.84 c 0.55859,1.6797 1.6797,2.8008 3.3594,3.9219 l 21.84,12.32 c 3.3594,1.6797 7.2812,0.55859 8.9609,-2.8008 2.2422,-3.3555 1.1211,-7.8359 -2.2383,-9.5156 z"
       id="path356"
       style="fill:#ffffff" />
  </g>
  <path
     d="m -601.24872,-13.005849 -22.56649,-0.640356 -24.45812,-24.391427 c -11.34086,-11.718465 -26.79492,-18.063584 -43.33008,-18.116856 l -47.59905,0.03689 c -11.52855,-0.191488 -20.80993,8.580623 -21.49478,20.372869 -0.22944,0.755915 0.29886,1.74473 0.066,2.502494 l -51.88164,-0.850713 c -11.52856,-0.191493 -21.79955,9.109352 -21.99047,20.637696 -0.16166,3.261864 0.92874,6.4881079 2.01565,9.7160994 -7.93574,2.96884599 -13.49874,10.387618 -13.75551,19.4138636 -0.2574,9.02614 5.21723,16.893816 12.56505,19.953229 -1.67878,2.801356 -2.59636,5.83376 -2.49483,9.588215 -0.1915,11.528553 9.10935,21.799559 20.63769,21.990466 l 9.02615,0.257397 c -1.18266,2.536285 -1.61099,5.3073 -1.54159,7.807968 -0.19151,11.528535 9.10935,21.799541 20.6377,21.990453 l 32.84118,0.863879 c 7.77417,0.292983 16.30573,0.810088 26.3886,3.044945 l 1.25205,-0.0356 c 22.40466,3.90252 81.04547,13.83914 100.8834,-21.520505 l 22.56647,0.640347 c 3.75454,-0.101584 6.68527,-2.938506 6.5837,-6.693045 -0.10158,-3.754548 -2.9385,-6.68529 -6.69304,-6.583717 l -26.32081,-0.539225 c -2.50249,0.06595 -4.97282,1.385802 -6.15883,3.923867 -13.45078,30.677278 -68.07432,21.131709 -88.96197,17.689649 l -1.25205,0.03563 c -10.5736,-1.96836 -19.86472,-2.72216 -28.13379,-2.746299 l -32.84119,-0.863881 c -4.51391,-0.126046 -7.61066,-3.551395 -7.48477,-8.065581 0.12604,-4.513916 4.04757,-7.875636 8.06558,-7.484771 l 48.12777,0.952722 c 3.75455,-0.101574 6.68529,-2.93851 6.58372,-6.69305 -0.10158,-3.754544 -2.93852,-6.685284 -6.69305,-6.583712 l -75.99816,-3.205984 c -4.51391,-0.126046 -7.87568,-4.047476 -7.48476,-8.065575 0.12603,-4.513913 3.55138,-7.610679 8.06556,-7.484779 l 66.17993,1.466469 c 3.75455,-0.101584 6.68529,-2.938516 6.84878,-6.196921 -0.10158,-3.754553 -2.93851,-6.685294 -6.69304,-6.583722 l -77.21374,-1.918206 c -4.51391,-0.126033 -7.87568,-4.047476 -7.48477,-8.065566 0.12603,-4.513907 4.04756,-7.8756347 8.06558,-7.4847787 l 71.45125,1.8258107 c 3.75454,-0.101581 6.68528,-2.9385157 6.58371,-6.6930557 -0.10159,-3.75454374 -2.93851,-6.6852797 -6.69306,-6.583712 l -60.41602,-1.3714151 c -4.51392,-0.1260451 -7.87568,-4.0474756 -7.48478,-8.0655842 0.12603,-4.513907 3.5514,-7.610675 8.06557,-7.484769 l 57.90943,1.43968 c 4.12121,4.149101 9.45897,7.010799 15.22279,7.105892 l 16.79877,0.546652 c 11.79247,47.031372 51.78129,43.443746 52.27787,43.17844 3.49132,-0.594262 5.92603,-3.166158 6.08759,-6.427979 0,0 -0.26324,-0.492681 0.22945,-0.755907 -0.59427,-3.491318 -3.92388,-6.158828 -7.41679,-5.55928 -1.25206,0.03562 -27.24011,2.489336 -37.11282,-29.0610353 2.00981,0.1972736 4.779,0.6221658 7.05203,1.3121343 l 4.28287,0.8872375 c 3.52509,0.6543431 6.98079,-1.1919678 8.13302,-4.9786375 0.65434,-3.525099 -1.19198,-6.980797 -4.97865,-8.133027 l -4.28285,-0.887242 c -5.8625,-3.852079 -10.90458,-4.966895 -16.40551,-4.570361 l -24.57561,-0.837862 c -2.50251,0.06595 -4.28285,-0.887238 -5.83376,-2.596366 -1.54745,-1.710963 -2.11139,-3.951823 -1.91412,-5.961637 0.12605,-4.513909 4.04757,-7.875635 8.06559,-7.48477 l 47.59903,-0.03689 c 12.78051,0.155915 24.94106,5.084773 34.20289,14.105646 l 26.27465,26.5966177 c 1.28421,1.21827907 2.80134,1.67877804 4.81115,1.87605683 l 25.06866,0.57444037 c 3.75456,-0.10157191 6.68529,-2.938497 6.58372,-6.6930412 0.39639,-4.0161768 -2.70376,-7.4396157 -6.45832,-7.3380387 z"
     id="path916"
     inkscape:export-filename="paper1.svg"
     inkscape:export-xdpi="96"
     inkscape:export-ydpi="96"
     style="fill:#ffffff" />
  <path
     d="m -1239.515,-10.036377 22.5451,-1.172378 23.876,-24.961468 c 11.0614,-11.982705 26.3615,-18.69053 42.8908,-19.133757 l 47.5867,-1.085702 c 11.5208,-0.463331 21.0065,8.087421 21.9692,19.860272 0.2473,0.750267 -0.2575,1.751264 -0.01,2.503321 l 51.8471,-2.074085 c 11.5208,-0.463306 22.0083,8.592717 22.4711,20.113352 0.2385,3.257154 -0.7755,6.5082238 -1.7859,9.7609234 8.0035,2.7808685 13.7399,10.0663779 14.2095,19.0840466 0.47018,9.017576 -4.81733,17.012149 -12.091,20.244021 1.7444,2.760975 2.7333,5.770898 2.7203,9.526694 0.4633,11.520853 -8.5927,22.008355 -20.1133,22.471081 l -9.0176,0.470236 c 1.2421,2.507677 1.7357,5.267808 1.7253,7.769405 0.4633,11.520845 -8.5927,22.008347 -20.1133,22.471073 l -32.8117,1.638165 c -7.7651,0.476246 -16.2821,1.19446 -26.3094,3.666457 l -1.2526,-0.006 c -22.3063,4.42983 -80.6965,15.7467 -101.3629,-19.135246 l -22.545,1.172378 c -3.7559,-0.013 -6.7528,-2.77998 -6.7398,-6.535872 0.013,-3.7559 2.78,-6.752767 6.5359,-6.739772 l 26.3008,-1.159807 c 2.5033,0.0069 5.0042,1.268101 6.2496,3.777524 14.1706,30.351515 68.5538,19.520303 89.3545,15.586614 l 1.2525,0.0061 c 10.5243,-2.21721 19.795,-3.189893 28.0613,-3.409087 l 32.8116,-1.638158 c 4.5097,-0.23245 7.5248,-3.729893 7.2925,-8.239869 -0.2325,-4.509671 -4.2321,-7.778022 -8.2399,-7.29246 l -48.0919,2.087531 c -3.7559,-0.013 -6.7527,-2.780039 -6.7397,-6.53593 0.013,-3.755892 2.78,-6.752709 6.5359,-6.739714 l 75.9014,-4.997477 c 4.5096,-0.232449 7.778,-4.232045 7.2925,-8.23986 -0.2325,-4.50967 -3.73,-7.524796 -8.2399,-7.292463 l -66.1269,3.026851 c -3.7559,-0.013 -6.7528,-2.779989 -6.993,-6.033676 0.013,-3.755901 2.78,-6.752718 6.5358,-6.739722 l 77.147,-3.738695 c 4.5098,-0.232491 7.7781,-4.232045 7.2925,-8.239852 -0.2325,-4.5096701 -4.232,-7.7780739 -8.2399,-7.2924712 l -71.3883,3.5104302 c -3.7559,-0.013 -6.7527,-2.7800387 -6.7397,-6.5359304 0.013,-3.75589165 2.78,-6.7527086 6.5359,-6.7397134 l 60.3669,-2.7959074 c 4.5097,-0.2324996 7.7781,-4.2320948 7.2925,-8.2398598 -0.2324,-4.509721 -3.7299,-7.524796 -8.2399,-7.292463 l -57.8594,2.805037 c -4.0222,4.245142 -9.291,7.23193 -15.0509,7.462893 l -16.7812,0.942692 c -10.68,47.296438 -50.7423,44.652909 -51.245,44.399398 -3.5044,-0.511755 -5.9991,-3.025503 -6.2375,-6.282633 0,0 0.2515,-0.498742 -0.2472,-0.750258 0.5117,-3.504376 3.7775,-6.249677 7.2836,-5.732696 1.2526,0.0061 27.2913,1.846207 36.4171,-29.9282078 -2.0046,0.2446002 -4.763,0.7346951 -7.0191,1.4780963 l -4.2608,0.9879931 c -3.5086,0.7372715 -7.0069,-1.0270044 -8.2481,-4.7854446 -0.7374,-3.508674 1.027,-7.00697 4.7854,-8.248176 l 4.2607,-0.988001 c 5.7701,-3.989311 10.7844,-5.222683 16.2932,-4.956012 l 24.549,-1.417238 c 2.5034,0.0069 4.2608,-0.987992 5.771,-2.733243 1.5066,-1.746983 2.0175,-4.000492 1.7729,-6.00512 -0.2325,-4.509671 -4.2321,-7.778024 -8.2398,-7.292463 l -47.5867,1.085702 c -12.7733,0.45733 -24.8143,5.671619 -33.8608,14.908417 l -25.6399,27.20884572 c -1.2552,1.24823188 -2.761,1.74439788 -4.7657,1.98904808 l -25.0481,1.1654686 c -3.7559,-0.012954 -6.7528,-2.7799803 -6.7398,-6.535872 -0.4909,-4.0057446 2.5276,-7.5013214 6.2835,-7.4883174 z"
     id="path918"
     inkscape:export-filename="paper.svg"
     inkscape:export-xdpi="96"
     inkscape:export-ydpi="96"
     style="fill:#ffffff" />
  <path
     d="m -1060.0836,237.54389 c 3.3286,-5.0595 4.9673,-11.79252 2.688,-18.49674 -2.8554,-8.94365 -11.854,-15.04897 -21.3728,-14.9909 l -19.6017,0.11958 c -4.5282,-7.81232 -12.4017,-13.36559 -21.9284,-14.42549 l -28.5824,-3.74761 c -15.1343,-2.14601 -30.7833,2.98865 -42.4796,13.13839 l -28.9667,25.37618 -22.9606,0.14007 c -3.9218,0.0239 -6.7016,2.84173 -6.6777,6.75966 0.024,3.92183 2.8417,6.70159 6.7597,6.67769 l 25.7615,-0.15716 c 1.6797,-0.0103 3.3559,-0.57907 4.4702,-1.707 l 30.6364,-27.0664 c 8.9129,-7.89432 20.0913,-11.32177 31.8634,-9.71406 l 28.5823,3.74761 c 8.4051,1.06984 14.61,8.30943 14.1023,16.71528 l -0.3468,34.72176 c 0.027,4.48042 -3.3115,7.86015 -7.7918,7.88748 -2.2383,0.0136 -3.9287,-1.09715 -5.6152,-2.20409 -1.6899,-1.66942 -2.2587,-3.34568 -2.2724,-5.58784 l 0.9776,-23.5264 c -0.02,-3.35934 -2.2759,-6.14643 -5.6425,-6.6845 l -15.1344,-2.14602 c -3.9252,-0.53465 -7.2674,2.28268 -7.8055,5.64933 -0.538,3.36274 2.2827,7.26741 5.6494,7.80548 l 7.8465,1.07325 c -11.0553,23.58788 -34.0262,22.04798 -35.1471,22.05482 -3.9253,-0.53465 -6.7051,2.27925 -7.2435,6.20451 v 0.55858 c 0.021,3.35933 2.8383,6.143 6.201,6.68109 9.5262,1.06301 25.1883,-1.83339 37.4373,-13.66964 0.586,4.47701 2.293,8.94708 5.6767,12.2856 1.6899,1.66943 3.3764,2.78026 5.0629,3.89109 -2.2177,3.37299 -3.3149,7.30156 -3.2876,11.78228 0.041,6.71867 3.4379,12.85826 8.5008,16.74944 -2.7803,3.37643 -3.874,7.86358 -3.8467,12.3437 0.02,3.35934 0.5962,6.15668 2.2929,8.94708 -19.0181,3.47548 -38.6163,4.15755 -52.6161,4.24296 -12.3197,0.0751 -23.5605,-6.5752 -30.3399,-16.61623 l -3.9594,-6.13616 c -1.1347,-2.23142 -3.3798,-3.33884 -5.622,-3.32516 l -26.8785,0.16397 c -3.9218,0.0239 -6.7016,2.84173 -6.6777,6.75966 0.024,3.92183 2.8418,6.70159 6.7597,6.67769 l 22.9606,-0.14007 0.5693,1.11375 c 9.0495,14.50406 24.7806,22.81025 41.5837,23.26675 17.3586,-0.10589 42.5548,-0.8182 65.4812,-6.55978 2.2416,0.54492 4.4872,1.09375 6.7255,1.08009 l 21.8396,-0.13323 c 11.7618,-0.0718 22.3395,-9.65596 22.2677,-21.41724 -0.031,-5.03901 -1.7343,-8.95049 -4.0004,-12.85484 5.0151,-3.95256 8.3368,-10.12904 8.2958,-16.85191 -0.027,-4.48042 -1.7343,-8.95049 -3.997,-12.29585 5.0151,-3.95257 8.8993,-10.13248 8.8548,-17.41334 -0.5956,-6.71919 -3.9926,-12.85888 -9.0554,-16.74607 z m -34.7463,-3.71 0.4766,-13.44416 -0.014,-2.23826 16.8007,-0.10249 c 4.4804,-0.0273 7.8602,3.31151 7.8875,7.79183 0.027,4.48042 -3.3115,7.86015 -7.7918,7.88748 z m 13.3161,71.60009 c 4.4804,-0.0273 7.8601,3.31152 7.8875,7.79183 0.027,4.48032 -3.3116,7.86015 -7.7919,7.88748 l -22.9605,0.14007 c -4.4805,0.0273 -7.8602,-3.31151 -7.8875,-7.79183 -0.027,-4.48031 3.3115,-7.86014 7.7918,-7.88748 z m 3.7442,-29.14038 c 4.4804,-0.0273 7.8601,3.31152 7.8875,7.79183 0.027,4.48042 -3.3116,7.86015 -7.7919,7.88748 l -30.8004,0.1879 c -4.4804,0.0273 -7.8601,-3.31151 -7.8875,-7.79183 -0.027,-4.48041 3.3115,-7.86015 7.7918,-7.88748 z m 4.957,-13.47149 -24.0776,0.14689 c 1.104,-2.80759 1.6455,-5.61174 2.1871,-8.4119 l -0.044,-7.28106 21.8396,-0.13324 c 4.4804,-0.0273 7.8601,3.31152 7.8874,7.79183 0.027,4.48032 -3.3115,7.86015 -7.7918,7.88748 z"
     id="path912"
     inkscape:export-filename="rock.svg"
     inkscape:export-xdpi="96"
     inkscape:export-ydpi="96"
     style="fill:#ffffff" />
  <path
     d="m -779.764,237.54389 c -3.3286,-5.0595 -4.9673,-11.79252 -2.688,-18.49674 2.8554,-8.94365 11.854,-15.04897 21.3728,-14.9909 l 19.6017,0.11958 c 4.5282,-7.81232 12.4017,-13.36559 21.9284,-14.42549 l 28.5824,-3.74761 c 15.1343,-2.14601 30.7833,2.98865 42.4796,13.13839 l 28.9667,25.37618 22.9606,0.14007 c 3.9218,0.0239 6.7016,2.84173 6.6777,6.75966 -0.024,3.92183 -2.8417,6.70159 -6.7597,6.67769 l -25.7615,-0.15716 c -1.6797,-0.0103 -3.3559,-0.57907 -4.4702,-1.707 l -30.6364,-27.0664 c -8.9129,-7.89432 -20.0913,-11.32177 -31.8634,-9.71406 l -28.5823,3.74761 c -8.4051,1.06984 -14.61,8.30943 -14.1023,16.71528 l 0.3468,34.72176 c -0.027,4.48042 3.3115,7.86015 7.7918,7.88748 2.2383,0.0136 3.9287,-1.09715 5.6152,-2.20409 1.6899,-1.66942 2.2587,-3.34568 2.2724,-5.58784 l -0.9776,-23.5264 c 0.02,-3.35934 2.2759,-6.14643 5.6425,-6.6845 l 15.1344,-2.14602 c 3.9252,-0.53465 7.2674,2.28268 7.8055,5.64933 0.538,3.36274 -2.2827,7.26741 -5.6494,7.80548 l -7.8465,1.07325 c 11.0553,23.58788 34.0262,22.04798 35.1471,22.05482 3.9253,-0.53465 6.7051,2.27925 7.2435,6.20451 v 0.55858 c -0.021,3.35933 -2.8383,6.143 -6.201,6.68109 -9.5262,1.06301 -25.1883,-1.83339 -37.4373,-13.66964 -0.586,4.47701 -2.293,8.94708 -5.6767,12.2856 -1.6899,1.66943 -3.3764,2.78026 -5.0629,3.89109 2.2177,3.37299 3.3149,7.30156 3.2876,11.78228 -0.041,6.71867 -3.4379,12.85826 -8.5008,16.74944 2.7803,3.37643 3.874,7.86358 3.8467,12.3437 -0.02,3.35934 -0.5962,6.15668 -2.2929,8.94708 19.0181,3.47548 38.6163,4.15755 52.6161,4.24296 12.3197,0.0751 23.5605,-6.5752 30.3399,-16.61623 l 3.9594,-6.13616 c 1.1347,-2.23142 3.3798,-3.33884 5.622,-3.32516 l 26.8785,0.16397 c 3.9218,0.0239 6.7016,2.84173 6.6777,6.75966 -0.024,3.92183 -2.8418,6.70159 -6.7597,6.67769 l -22.9606,-0.14007 -0.5693,1.11375 c -9.0495,14.50406 -24.7806,22.81025 -41.5837,23.26675 -17.3586,-0.10589 -42.5548,-0.8182 -65.4812,-6.55978 -2.2416,0.54492 -4.4872,1.09375 -6.7255,1.08009 l -21.8396,-0.13323 c -11.7618,-0.0718 -22.3395,-9.65596 -22.2677,-21.41724 0.031,-5.03901 1.7343,-8.95049 4.0004,-12.85484 -5.0151,-3.95256 -8.3368,-10.12904 -8.2958,-16.85191 0.027,-4.48042 1.7343,-8.95049 3.997,-12.29585 -5.0151,-3.95257 -8.8993,-10.13248 -8.8548,-17.41334 0.5956,-6.71919 3.9926,-12.85888 9.0554,-16.74607 z m 34.7463,-3.71 -0.4766,-13.44416 0.014,-2.23826 -16.8007,-0.10249 c -4.4804,-0.0273 -7.8602,3.31151 -7.8875,7.79183 -0.027,4.48042 3.3115,7.86015 7.7918,7.88748 z m -13.3161,71.60009 c -4.4804,-0.0273 -7.8601,3.31152 -7.8875,7.79183 -0.027,4.48032 3.3116,7.86015 7.7919,7.88748 l 22.9605,0.14007 c 4.4805,0.0273 7.8602,-3.31151 7.8875,-7.79183 0.027,-4.48031 -3.3115,-7.86014 -7.7918,-7.88748 z m -3.7442,-29.14038 c -4.4804,-0.0273 -7.8601,3.31152 -7.8875,7.79183 -0.027,4.48042 3.3116,7.86015 7.7919,7.88748 l 30.8004,0.1879 c 4.4804,0.0273 7.8601,-3.31151 7.8875,-7.79183 0.027,-4.48041 -3.3115,-7.86015 -7.7918,-7.88748 z m -4.957,-13.47149 24.0776,0.14689 c -1.104,-2.80759 -1.6455,-5.61174 -2.1871,-8.4119 l 0.044,-7.28106 -21.8396,-0.13324 c -4.4804,-0.0273 -7.8601,3.31152 -7.8874,7.79183 -0.027,4.48032 3.3115,7.86015 7.7918,7.88748 z"
     id="path920"
     inkscape:export-filename="rock1.svg"
     inkscape:export-xdpi="96"
     inkscape:export-ydpi="96"
     style="fill:#ffffff" />
  <path
     d="m -992.58941,514.19452 c -3.24484,-4.45798 -8.29819,-8.02507 -13.78319,-8.60276 l -52.886,-9.19485 43.1002,-7.44771 c 11.401,-1.82525 19.3683,-13.39089 17.54456,-24.78648 -2.30906,-11.68026 -13.39086,-19.3683 -24.78646,-17.54456 l -76.8209,13.19771 c -3.9887,-8.77103 -12.6448,-15.05865 -22.8483,-16.42557 l -28.8774,-3.74088 c -15.6886,-1.94461 -30.784,2.92141 -42.4269,13.00951 l -28.8684,25.36159 -23.3401,0.10619 c -3.7492,-0.22504 -6.9603,3.09464 -6.4189,6.64122 0.538,3.54471 3.0947,6.96032 6.6412,6.41887 l 25.8368,0.0455 c 1.7339,0.3561 3.0575,-0.81927 4.3865,-1.99606 l 30.474,-27.02459 c 8.996,-7.73767 20.2662,-11.57807 32.2053,-9.85923 l 28.8774,3.74088 c 8.4692,1.01057 14.0626,8.119 14.5838,16.17815 l -0.2793,0.48375 -0.5689,34.58738 c -0.023,4.51561 -3.7154,7.55253 -7.7461,7.81497 -2.2964,0.6182 -4.2382,-0.5029 -5.8973,-2.10582 -1.6592,-1.60291 -2.2774,-3.89937 -1.9193,-5.63671 l 0.9419,-24.02939 c -0.054,-3.26541 -2.1238,-6.39978 -5.5936,-7.10852 l -14.9251,-2.14888 c -3.4699,-0.7088 -6.8836,1.84444 -7.5957,5.31228 -0.7088,3.46988 1.8445,6.88354 5.3123,7.59567 l 7.7061,1.21503 c -10.9426,23.4297 -33.9242,21.79835 -35.1748,21.7206 -3.7492,-0.22504 -7.1648,2.33157 -7.3898,6.08066 0,0 -0.2793,0.48376 0.2045,0.76306 0.054,3.26541 2.6108,6.68102 5.8728,6.62476 9.2342,0.80273 24.9432,-1.76486 37.4295,-13.30588 0.7459,4.30973 2.7386,8.69429 6.0581,11.90521 1.6591,1.6029 3.3196,3.21115 6.0264,4.12435 -1.4004,2.42556 -3.0801,5.33489 -3.5096,8.32092 -0.077,1.2502 -0.1482,2.49897 -0.225,3.74917 0.1853,5.28063 2.3858,10.43007 5.4264,14.12513 -3.9761,3.52752 -6.2144,7.40428 -7,12.12436 -0.077,1.2502 -0.1482,2.49897 -0.225,3.74917 0.054,3.26542 0.8769,6.32494 1.9755,8.89876 -17.7239,2.69861 -35.2996,2.89857 -48.3577,3.11789 -12.2955,0.0144 -23.449,-6.42511 -30.3468,-16.87575 l -4.139,-6.26872 c -1.3778,-2.09005 -3.3196,-3.21115 -5.8186,-3.3594 l -26.3318,-0.32203 c -3.7492,-0.22504 -6.9603,3.09464 -6.4189,6.64122 -0.225,3.74917 3.0947,6.96032 6.6413,6.41887 l 23.34,-0.10619 2.0695,3.13436 c 9.1753,14.34997 24.6927,23.30897 41.5038,23.31725 16.0443,0.21053 39.1802,-0.65807 61.0055,-4.86854 0.9709,0.56055 1.7339,0.3561 2.7049,0.91665 l 22.3497,3.85103 c 11.6596,2.20304 22.6691,-5.66202 24.8741,-17.3251 0.7856,-4.72008 0.04,-9.02971 -2.2342,-12.927 0.763,-0.20446 1.8107,-0.89412 2.5738,-1.09858 4.4579,-3.24484 8.025,-8.29822 8.6027,-13.78322 0.4295,-2.98611 0.5812,-5.48314 -0.037,-7.7796 l 45.1838,7.98122 c 5.691,1.34614 11.045,-0.0914 16.26897,-3.53862 4.45798,-3.24484 8.02507,-8.29821 8.60276,-13.78322 0.86627,-5.97703 -0.56928,-11.33436 -3.53261,-16.27932 z m -104.42539,-40.88991 c 0,0 0.2793,-0.48375 -0.2044,-0.763 l 75.5637,-13.2781 c 4.3097,-0.74587 8.3923,2.26077 9.138,6.5704 0.2044,0.763 0.2044,0.763 -0.077,1.25015 -0.2251,3.74918 -2.949,7.35002 -6.4937,7.88795 l -78.3418,13.61402 z M -1117.261,543.09 c -0.8941,-1.81076 -1.7902,-3.61813 -1.1562,-5.84118 0.5063,-4.23632 4.9642,-7.48107 8.9192,-6.48756 l 30.5401,5.34513 c 2.2177,0.6354 3.6757,1.4772 5.3349,3.0801 1.1753,1.3236 1.5857,2.85506 1.2296,4.58902 -0.2793,0.48376 0.2044,0.76306 -0.077,1.2502 -0.6354,2.21773 -1.4772,3.67577 -3.5639,5.05559 -1.8107,0.89412 -3.6181,1.79018 -5.8411,1.15622 l -30.5401,-5.34512 c -2.0132,0.12767 -3.9517,-0.99148 -4.8457,-2.80232 z m 32.4852,35.57006 c -1.8108,0.89411 -3.6181,1.79017 -5.8412,1.15621 l -22.3498,-3.85103 c -2.2177,-0.6354 -3.6757,-1.4772 -5.3349,-3.0801 -1.6591,-1.6029 -1.7901,-3.61813 -1.1562,-5.84118 0.6355,-2.21767 1.4773,-3.67571 3.0801,-5.33489 1.8108,-0.89411 4.1053,-1.50892 5.8412,-1.15621 l 22.3498,3.85103 c 4.2363,0.50629 7.481,4.9642 6.4875,8.91923 -0.1448,2.50092 -0.9847,3.95559 -3.0801,5.33489 z m 78.7625,-45.70273 c -1.8107,0.89411 -3.6181,1.79017 -5.8412,1.15621 l -89.1174,-15.88605 c 1.6797,-2.90933 3.1569,-6.58496 3.3821,-10.33453 l 0.3018,-4.99937 88.6307,15.60505 c 2.2178,0.63539 3.6758,1.47719 5.3349,3.0801 0.8941,1.81075 1.7902,3.61812 1.1562,5.84117 -0.9166,2.70487 -1.7564,4.15953 -3.8465,5.53741 z"
     id="path914"
     inkscape:export-filename="scissors.svg"
     inkscape:export-xdpi="96"
     inkscape:export-ydpi="96"
     style="fill:#ffffff" />
  <path
     d="m -847.25824,514.19452 c 3.24484,-4.45798 8.29822,-8.02507 13.78323,-8.60276 l 52.88595,-9.19485 -43.10019,-7.44771 c -11.40097,-1.82525 -19.3683,-13.39089 -17.54456,-24.78648 2.30901,-11.68026 13.39088,-19.3683 24.78647,-17.54456 l 76.82091,13.19771 c 3.98866,-8.77103 12.64474,-15.05865 22.84831,-16.42557 l 28.87739,-3.74088 c 15.68857,-1.94461 30.78398,2.92141 42.42688,13.00951 l 28.86843,25.36159 23.34007,0.10619 c 3.74918,-0.22504 6.96033,3.09464 6.41888,6.64122 -0.53803,3.54471 -3.09464,6.96032 -6.64122,6.41887 l -25.83673,0.0455 c -1.73396,0.3561 -3.05758,-0.81927 -4.38652,-1.99606 l -30.47404,-27.02459 c -8.99596,-7.73767 -20.26619,-11.57807 -32.20531,-9.85923 l -28.8774,3.74088 c -8.46916,1.01057 -14.06252,8.119 -14.58378,16.17815 l 0.2793,0.48375 0.56891,34.58738 c 0.0225,4.51561 3.71543,7.55253 7.74606,7.81497 2.29646,0.61819 4.23827,-0.50291 5.89739,-2.10582 1.65912,-1.60291 2.27731,-3.89937 1.91928,-5.63671 l -0.94188,-24.02939 c 0.0543,-3.26541 2.12373,-6.39978 5.59352,-7.10852 l 14.92516,-2.14888 c 3.46987,-0.7088 6.88354,1.84444 7.59566,5.31228 0.7088,3.46988 -1.84444,6.88354 -5.31227,7.59567 l -7.70611,1.21503 c 10.94258,23.4297 33.92415,21.79835 35.17483,21.72059 3.74918,-0.22503 7.16479,2.33158 7.38978,6.08067 0,0 0.27929,0.48375 -0.20447,0.76305 -0.0543,3.26542 -2.61088,6.68103 -5.87283,6.62477 -9.23418,0.80273 -24.94318,-1.76486 -37.42954,-13.30588 -0.74587,4.30973 -2.73856,8.69429 -6.05802,11.90521 -1.65913,1.6029 -3.31968,3.21115 -6.02641,4.12435 1.4004,2.42556 3.0801,5.33489 3.50955,8.32092 0.0768,1.2502 0.14825,2.49897 0.22503,3.74917 -0.18531,5.28063 -2.3858,10.43007 -5.42644,14.12513 3.97617,3.52752 6.21442,7.40428 7,12.12436 0.0768,1.2502 0.14825,2.49897 0.22504,3.74917 -0.0543,3.26542 -0.87691,6.32494 -1.97549,8.89875 17.72386,2.69862 35.29953,2.89858 48.35765,3.1179 12.29547,0.0144 23.44901,-6.42511 30.34683,-16.87575 l 4.13895,-6.26872 c 1.37787,-2.09005 3.31967,-3.21115 5.81865,-3.3594 l 26.33177,-0.32203 c 3.74918,-0.22504 6.96033,3.09464 6.41888,6.64122 0.22503,3.74917 -3.09464,6.96032 -6.64122,6.41887 l -23.34007,-0.10619 -2.06948,3.13436 c -9.17527,14.34997 -24.69271,23.30897 -41.50383,23.31725 -16.04426,0.21053 -39.18019,-0.65807 -61.00545,-4.86854 -0.9709,0.56055 -1.73396,0.3561 -2.70486,0.91665 l -22.34979,3.85103 c -11.65957,2.20304 -22.66909,-5.66202 -24.87404,-17.3251 -0.78559,-4.72008 -0.0397,-9.02972 2.23423,-12.927 -0.76306,-0.20446 -1.81075,-0.89412 -2.57381,-1.09858 -4.45798,-3.24484 -8.02507,-8.29822 -8.60277,-13.78322 -0.42949,-2.98611 -0.58112,-5.48314 0.0371,-7.7796 l -45.18388,7.98122 c -5.69098,1.34614 -11.04493,-0.0914 -16.26893,-3.53862 -4.45798,-3.24484 -8.02507,-8.29822 -8.60277,-13.78322 -0.86627,-5.97703 0.56929,-11.33436 3.53262,-16.27932 z m 104.4254,-40.88991 c 0,0 -0.2793,-0.48375 0.20438,-0.763 l -75.56366,-13.2781 c -4.30973,-0.74587 -8.39238,2.26077 -9.13807,6.5704 -0.20438,0.763 -0.20438,0.763 0.0769,1.25015 0.22503,3.74918 2.949,7.35002 6.49366,7.88795 l 78.34182,13.61402 z m 20.24616,69.78538 c 0.89412,-1.81075 1.79018,-3.61812 1.15622,-5.84117 -0.50629,-4.23632 -4.96421,-7.48107 -8.91923,-6.48756 l -30.54002,5.34513 c -2.21772,0.63539 -3.67576,1.47719 -5.33489,3.0801 -1.17537,1.3236 -1.58572,2.85506 -1.22963,4.58902 0.2793,0.48376 -0.20447,0.76306 0.0768,1.2502 0.63539,2.21773 1.47719,3.67577 3.56386,5.05559 1.81075,0.89412 3.61813,1.79018 5.84118,1.15622 l 30.54002,-5.34512 c 2.01327,0.12767 3.95169,-0.99148 4.84575,-2.80232 z m -32.48515,35.57007 c 1.81075,0.89411 3.61812,1.79017 5.84118,1.15621 l 22.34978,-3.85103 c 2.21772,-0.6354 3.67576,-1.4772 5.33489,-3.0801 1.65913,-1.60291 1.79018,-3.61813 1.15622,-5.84118 -0.63548,-2.21767 -1.47728,-3.67571 -3.0801,-5.33489 -1.81075,-0.89411 -4.10527,-1.50892 -5.84118,-1.15621 l -22.34979,3.85103 c -4.23631,0.50629 -7.48107,4.9642 -6.48755,8.91923 0.14487,2.50092 0.98472,3.95558 3.0801,5.33489 z m -78.76255,-45.70274 c 1.81075,0.89412 3.61813,1.79018 5.84118,1.15622 l 89.11745,-15.88605 c -1.6797,-2.90933 -3.15693,-6.58496 -3.38208,-10.33453 l -0.30182,-4.99937 -88.63074,15.60505 c -2.21772,0.63539 -3.67576,1.47719 -5.33489,3.0801 -0.89412,1.81075 -1.79018,3.61812 -1.15622,5.84117 0.91664,2.70487 1.75649,4.15953 3.84654,5.53741 z"
     id="path922"
     inkscape:export-filename="scissors1.svg"
     inkscape:export-xdpi="96"
     inkscape:export-ydpi="96"
     style="fill:#ffffff" />
</svg>
