<?xml version="1.0" encoding="UTF-8" standalone="no"?>
<svg
   width="251.96973pt"
   height="162.84428pt"
   version="1.1"
   viewBox="0 0 251.96973 162.84428"
   id="svg438"
   sodipodi:docname="noun-game-3971461.svg"
   inkscape:version="1.2.1 (9c6d41e410, 2022-07-14)"
   inkscape:export-filename="rock2.svg"
   inkscape:export-xdpi="96"
   inkscape:export-ydpi="96"
   xmlns:inkscape="http://www.inkscape.org/namespaces/inkscape"
   xmlns:sodipodi="http://sodipodi.sourceforge.net/DTD/sodipodi-0.dtd"
   xmlns="http://www.w3.org/2000/svg"
   xmlns:svg="http://www.w3.org/2000/svg">
  <sodipodi:namedview
     id="namedview440"
     pagecolor="#ffffff"
     bordercolor="#ffffff"
     borderopacity="1"
     inkscape:showpageshadow="2"
     inkscape:pageopacity="0.0"
     inkscape:pagecheckerboard="0"
     inkscape:deskcolor="#b5b5b5"
     inkscape:document-units="pt"
     showgrid="false"
     inkscape:zoom="0.39803571"
     inkscape:cx="-656.97622"
     inkscape:cy="192.19381"
     inkscape:window-width="1920"
     inkscape:window-height="1001"
     inkscape:window-x="-9"
     inkscape:window-y="-9"
     inkscape:window-maximized="1"
     inkscape:current-layer="svg438" />
  <defs
     id="defs350" />
  <path
     d="M 6.3409299,46.371264 28.88603,45.198886 52.76203,20.237418 C 63.82343,8.2547131 79.12353,1.5468881 95.65283,1.1036611 l 47.5867,-1.08570197 c 11.5208,-0.463331 21.0065,8.08742097 21.9692,19.86027187 0.2473,0.750267 -0.2575,1.751264 -0.01,2.503321 l 51.8471,-2.074085 c 11.5208,-0.463306 22.0083,8.592717 22.4711,20.113352 0.2385,3.257154 -0.7755,6.508224 -1.7859,9.760924 8.0035,2.780868 13.7399,10.066377 14.2095,19.084046 0.47018,9.017576 -4.81733,17.012149 -12.091,20.244021 1.7444,2.760975 2.7333,5.770898 2.7203,9.526694 0.4633,11.520856 -8.5927,22.008356 -20.1133,22.471086 l -9.0176,0.47023 c 1.2421,2.50768 1.7357,5.26781 1.7253,7.76941 0.4633,11.52084 -8.5927,22.00834 -20.1133,22.47107 l -32.8117,1.63816 c -7.7651,0.47625 -16.2821,1.19446 -26.3094,3.66646 l -1.2526,-0.006 c -22.3063,4.42983 -80.6965,15.7467 -101.3629,-19.13524 l -22.545,1.17237 c -3.7559001,-0.013 -6.7528001,-2.77998 -6.7398001,-6.53587 0.013,-3.7559 2.78,-6.75277 6.5359001,-6.73977 l 26.3008,-1.15981 c 2.5033,0.007 5.0042,1.2681 6.2496,3.77753 14.1706,30.35151 68.5538,19.5203 89.3545,15.58661 l 1.2525,0.006 c 10.5243,-2.21721 19.795,-3.18989 28.0613,-3.40909 l 32.8116,-1.63815 c 4.5097,-0.23245 7.5248,-3.7299 7.2925,-8.23987 -0.2325,-4.50967 -4.2321,-7.77803 -8.2399,-7.29246 l -48.0919,2.08753 c -3.7559,-0.013 -6.7527,-2.78004 -6.7397,-6.53593 0.013,-3.75589 2.78,-6.75271 6.5359,-6.73972 l 75.9014,-4.99747 c 4.5096,-0.23245 7.778,-4.23205 7.2925,-8.239864 -0.2325,-4.50967 -3.73,-7.524796 -8.2399,-7.292463 l -66.1269,3.026851 c -3.7559,-0.013 -6.7528,-2.779989 -6.993,-6.033676 0.013,-3.755901 2.78,-6.752718 6.5358,-6.739722 l 77.147,-3.738695 c 4.5098,-0.232491 7.7781,-4.232045 7.2925,-8.239852 -0.2325,-4.50967 -4.232,-7.778074 -8.2399,-7.292471 l -71.3883,3.51043 c -3.7559,-0.013 -6.7527,-2.780039 -6.7397,-6.53593 0.013,-3.755892 2.78,-6.752709 6.5359,-6.739714 l 60.3669,-2.795907 c 4.5097,-0.2325 7.7781,-4.232095 7.2925,-8.23986 -0.2324,-4.509721 -3.7299,-7.524796 -8.2399,-7.292463 l -57.8594,2.805037 c -4.0222,4.245142 -9.291,7.23193 -15.0509,7.462893 l -16.7812,0.942692 c -10.68,47.296438 -50.7423,44.652909 -51.245,44.399398 -3.5044,-0.511755 -5.9991,-3.025503 -6.2375,-6.282633 0,0 0.2515,-0.498742 -0.2472,-0.750258 0.5117,-3.504376 3.7775,-6.249677 7.2836,-5.732696 1.2526,0.0061 27.2913,1.846207 36.4171,-29.928208 -2.0046,0.244601 -4.763,0.734695 -7.0191,1.478097 l -4.2608,0.987993 c -3.5086,0.737271 -7.0069,-1.027005 -8.2481,-4.785445 -0.7374,-3.508674 1.027,-7.00697 4.7854,-8.248176 l 4.2607,-0.988001 c 5.7701,-3.989311 10.7844,-5.222683 16.2932,-4.956012 l 24.549,-1.417238 c 2.5034,0.0069 4.2608,-0.987992 5.771,-2.733243 1.5066,-1.746983 2.0175,-4.000492 1.7729,-6.00512 -0.2325,-4.509671 -4.2321,-7.778024 -8.2398,-7.292463 l -47.5867,1.085702 c -12.7733,0.45733 -24.8143,5.671619 -33.8608,14.908417 l -25.6399,27.208846 c -1.2552,1.248232 -2.761,1.744398 -4.7657,1.989048 L 6.7922299,60.394443 c -3.7559,-0.01295 -6.75280003,-2.779981 -6.73980003,-6.535872 -0.4909,-4.005745 2.52760003,-7.501322 6.28350003,-7.488318 z"
     id="path918"
     inkscape:export-filename="paper1.svg"
     inkscape:export-xdpi="96"
     inkscape:export-ydpi="96"
     style="fill:#ffffff" />
</svg>
