<?xml version="1.0" encoding="UTF-8" standalone="no"?>
<svg
   width="251.49756pt"
   height="161.59795pt"
   version="1.1"
   viewBox="0 0 251.49756 161.59795"
   id="svg438"
   sodipodi:docname="noun-game-3971461.svg"
   inkscape:version="1.2.1 (9c6d41e410, 2022-07-14)"
   inkscape:export-filename="rock2.svg"
   inkscape:export-xdpi="96"
   inkscape:export-ydpi="96"
   xmlns:inkscape="http://www.inkscape.org/namespaces/inkscape"
   xmlns:sodipodi="http://sodipodi.sourceforge.net/DTD/sodipodi-0.dtd"
   xmlns="http://www.w3.org/2000/svg"
   xmlns:svg="http://www.w3.org/2000/svg">
  <sodipodi:namedview
     id="namedview440"
     pagecolor="#ffffff"
     bordercolor="#ffffff"
     borderopacity="1"
     inkscape:showpageshadow="2"
     inkscape:pageopacity="0.0"
     inkscape:pagecheckerboard="0"
     inkscape:deskcolor="#b5b5b5"
     inkscape:document-units="pt"
     showgrid="false"
     inkscape:zoom="0.39803571"
     inkscape:cx="-656.97622"
     inkscape:cy="192.19381"
     inkscape:window-width="1920"
     inkscape:window-height="1001"
     inkscape:window-x="-9"
     inkscape:window-y="-9"
     inkscape:window-maximized="1"
     inkscape:current-layer="svg438" />
  <defs
     id="defs350" />
  <path
     d="M 245.00321,43.148637 222.43672,42.508281 197.9786,18.116854 C 186.63774,6.3983894 171.18368,0.05327039 154.64852,-1.6142074e-6 L 107.04947,0.03688839 C 95.520925,-0.15459961 86.239545,8.6175114 85.554695,20.409757 c -0.22944,0.755915 0.29886,1.74473 0.066,2.502494 l -51.88164,-0.850713 c -11.52856,-0.191493 -21.79955,9.109352 -21.99047,20.637696 -0.16166,3.261864 0.92874,6.488108 2.01565,9.7161 C 5.8284947,55.38418 0.26549468,62.802952 0.00872468,71.829197 c -0.2574,9.02614 5.21723002,16.893816 12.56505032,19.953229 -1.67878,2.801356 -2.5963603,5.83376 -2.49483,9.588214 -0.1915003,11.52855 9.10935,21.79956 20.63769,21.99047 l 9.02615,0.25739 c -1.18266,2.53629 -1.61099,5.3073 -1.54159,7.80797 -0.19151,11.52854 9.10935,21.79954 20.6377,21.99046 l 32.84118,0.86387 c 7.77417,0.29299 16.305725,0.81009 26.388595,3.04495 l 1.25205,-0.0356 c 22.40466,3.90252 81.04547,13.83914 100.8834,-21.52051 l 22.56647,0.64035 c 3.75454,-0.10158 6.68527,-2.9385 6.5837,-6.69304 -0.10158,-3.75455 -2.9385,-6.68529 -6.69304,-6.58372 L 216.34044,122.594 c -2.50249,0.066 -4.97282,1.38581 -6.15883,3.92387 -13.45078,30.67728 -68.07432,21.13171 -88.96197,17.68965 l -1.25205,0.0356 c -10.5736,-1.96836 -19.86472,-2.72216 -28.133785,-2.7463 l -32.84119,-0.86388 c -4.51391,-0.12605 -7.61066,-3.55139 -7.48477,-8.06558 0.12604,-4.51392 4.04757,-7.87564 8.06558,-7.48477 l 48.127765,0.95272 c 3.75455,-0.10157 6.68529,-2.93851 6.58372,-6.69305 -0.10158,-3.75454 -2.93852,-6.68528 -6.69305,-6.58371 l -75.998155,-3.20599 c -4.51391,-0.12604 -7.87568,-4.04747 -7.48476,-8.06557 0.12603,-4.513914 3.55138,-7.61068 8.06556,-7.48478 l 66.17993,1.466469 c 3.754545,-0.101584 6.685285,-2.938516 6.848775,-6.196921 -0.10158,-3.754553 -2.93851,-6.685294 -6.693035,-6.583722 L 21.296435,80.76986 c -4.51391,-0.126033 -7.87568,-4.047476 -7.48477,-8.065566 0.12603,-4.513907 4.04756,-7.875634 8.06558,-7.484778 l 71.45125,1.82581 c 3.75454,-0.101581 6.685275,-2.938515 6.58371,-6.693055 -0.10159,-3.754544 -2.93851,-6.68528 -6.69306,-6.583712 l -60.41602,-1.371415 c -4.51392,-0.126046 -7.87568,-4.047476 -7.48478,-8.065585 0.12603,-4.513907 3.5514,-7.610675 8.06557,-7.484769 l 57.90943,1.43968 c 4.12121,4.149101 9.458965,7.010799 15.222785,7.105892 l 16.79877,0.546652 c 11.79247,47.031372 51.78129,43.443746 52.27787,43.17844 3.49132,-0.594262 5.92603,-3.166158 6.08759,-6.427979 0,0 -0.26324,-0.492681 0.22945,-0.755907 -0.59427,-3.491318 -3.92388,-6.158828 -7.41679,-5.55928 -1.25206,0.03562 -27.24011,2.489336 -37.11282,-29.061035 2.00981,0.197274 4.779,0.622166 7.05203,1.312134 l 4.28287,0.887238 c 3.52509,0.654343 6.98079,-1.191968 8.13302,-4.978638 0.65434,-3.525099 -1.19198,-6.980797 -4.97865,-8.133027 l -4.28285,-0.887242 c -5.8625,-3.852079 -10.90458,-4.966895 -16.40551,-4.570361 L 106.6055,30.105495 c -2.50251,0.06595 -4.28285,-0.887238 -5.83376,-2.596366 -1.547445,-1.710963 -2.111385,-3.951823 -1.914115,-5.961637 0.12605,-4.513909 4.047565,-7.875635 8.065585,-7.48477 l 47.59903,-0.03689 c 12.78051,0.155915 24.94106,5.084773 34.20289,14.105646 l 26.27465,26.596618 c 1.28421,1.218279 2.80134,1.678778 4.81115,1.876057 l 25.06866,0.57444 c 3.75456,-0.101572 6.68529,-2.938497 6.58372,-6.693041 0.39639,-4.016177 -2.70376,-7.439616 -6.45832,-7.338039 z"
     id="path916"
     inkscape:export-filename="paper2.svg"
     inkscape:export-xdpi="96"
     inkscape:export-ydpi="96"
     style="fill:#ffffff" />
</svg>
