<?xml version="1.0" encoding="UTF-8" standalone="no"?>
<svg
   width="532.65033pt"
   height="427.88846pt"
   version="1.1"
   viewBox="0 0 532.65033 427.88846"
   id="svg438"
   sodipodi:docname="noun-game-3971461.svg"
   inkscape:version="1.2.1 (9c6d41e410, 2022-07-14)"
   inkscape:export-filename="rock2.svg"
   inkscape:export-xdpi="96"
   inkscape:export-ydpi="96"
   xmlns:inkscape="http://www.inkscape.org/namespaces/inkscape"
   xmlns:sodipodi="http://sodipodi.sourceforge.net/DTD/sodipodi-0.dtd"
   xmlns="http://www.w3.org/2000/svg"
   xmlns:svg="http://www.w3.org/2000/svg">
  <sodipodi:namedview
     id="namedview440"
     pagecolor="#ffffff"
     bordercolor="#ffffff"
     borderopacity="1"
     inkscape:showpageshadow="2"
     inkscape:pageopacity="0.0"
     inkscape:pagecheckerboard="0"
     inkscape:deskcolor="#b5b5b5"
     inkscape:document-units="pt"
     showgrid="false"
     inkscape:zoom="0.39803571"
     inkscape:cx="-656.97622"
     inkscape:cy="192.19381"
     inkscape:window-width="1920"
     inkscape:window-height="1001"
     inkscape:window-x="-9"
     inkscape:window-y="-9"
     inkscape:window-maximized="1"
     inkscape:current-layer="svg438" />
  <defs
     id="defs350" />
  <g
     id="g1963"
     transform="translate(-83.396791,-66.079016)"
     style="fill:#ffffff">
    <path
       d="m 395.36,255.92 c 5.0391,3.3594 11.762,5.0391 18.48,2.8008 8.9609,-2.8008 15.121,-11.762 15.121,-21.281 v -19.602 c 7.8398,-4.4805 13.441,-12.32 14.559,-21.84 l 3.9219,-28.559 c 2.2383,-15.121 -2.8008,-30.801 -12.879,-42.559 l -25.199,-29.121 v -22.961 c 0,-3.9219 -2.8008,-6.7188 -6.7188,-6.7188 -3.9219,0 -6.7188,2.8008 -6.7188,6.7188 v 25.762 c 0,1.6797 0.55859,3.3594 1.6797,4.4805 l 26.879,30.801 c 7.8398,8.9609 11.199,20.16 9.5195,31.922 l -3.9219,28.559 c -1.1211,8.3984 -8.3984,14.559 -16.801,14 l -34.719,-0.55859 c -4.4805,0 -7.8398,-3.3594 -7.8398,-7.8398 0,-2.2383 1.1211,-3.9219 2.2383,-5.6016 1.6797,-1.6797 3.3594,-2.2383 5.6016,-2.2383 l 23.52,1.1211 c 3.3594,0 6.1602,-2.2383 6.7188,-5.6016 l 2.2383,-15.121 c 0.55859,-3.9219 -2.2383,-7.2812 -5.6016,-7.8398 -3.3594,-0.55859 -7.2812,2.2383 -7.8398,5.6016 l -1.1211,7.8398 c -23.52,-11.199 -21.84,-34.16 -21.84,-35.281 0.55859,-3.9219 -2.2383,-6.7188 -6.1602,-7.2812 h -0.55859 c -3.3594,0 -6.1602,2.8008 -6.7188,6.1602 -1.1211,9.5195 1.6797,25.199 13.441,37.52 -4.4805,0.55859 -8.9609,2.2383 -12.32,5.6016 -1.6797,1.6797 -2.8008,3.3594 -3.9219,5.0391 -3.3594,-2.2383 -7.2812,-3.3594 -11.762,-3.3594 -6.7188,0 -12.879,3.3594 -16.801,8.3984 -3.3594,-2.8008 -7.8398,-3.9219 -12.32,-3.9219 -3.3594,0 -6.1602,0.55859 -8.9609,2.2383 -3.3594,-19.039 -3.9219,-38.641 -3.9219,-52.641 0,-12.32 6.7188,-23.52 16.801,-30.238 l 6.1602,-3.9219 c 2.2383,-1.1211 3.3594,-3.3594 3.3594,-5.6016 v -26.879 c 0,-3.9219 -2.8008,-6.7188 -6.7188,-6.7188 -3.9219,0 -6.7188,2.8008 -6.7188,6.7188 v 22.961 l -1.1172,0.5625 c -14.559,8.9609 -22.961,24.641 -23.52,41.441 0,17.359 0.55859,42.559 6.1602,65.52 -0.55859,2.2383 -1.1211,4.4805 -1.1211,6.7188 v 21.84 c 0,11.762 9.5195,22.398 21.281,22.398 5.0391,0 8.9609,-1.6797 12.879,-3.9219 3.9219,5.0391 10.078,8.3984 16.801,8.3984 4.4805,0 8.9609,-1.6797 12.32,-3.9219 3.9219,5.0391 10.078,8.9609 17.359,8.9609 6.7227,-0.55469 12.883,-3.9141 16.801,-8.9531 z m 3.9219,-34.723 13.441,0.55859 h 2.2383 v 16.801 c 0,4.4805 -3.3594,7.8398 -7.8398,7.8398 -4.4805,0 -7.8398,-3.3594 -7.8398,-7.8398 z m -71.68,12.879 c 0,4.4805 -3.3594,7.8398 -7.8398,7.8398 -4.4804,0 -7.8398,-3.3594 -7.8398,-7.8398 v -22.961 c 0,-4.4805 3.3594,-7.8398 7.8398,-7.8398 4.4804,0 7.8398,3.3594 7.8398,7.8398 z m 29.117,3.9219 c 0,4.4805 -3.3594,7.8398 -7.8398,7.8398 -4.4805,0 -7.8398,-3.3594 -7.8398,-7.8398 v -30.801 c 0,-4.4805 3.3594,-7.8398 7.8398,-7.8398 4.4805,0 7.8398,3.3594 7.8398,7.8398 z m 13.441,5.0391 v -24.078 c 2.8008,1.1211 5.6016,1.6797 8.3984,2.2383 h 7.2812 v 21.84 c 0,4.4805 -3.3594,7.8398 -7.8398,7.8398 -4.4804,0 -7.8398,-3.3594 -7.8398,-7.8398 z"
       id="path352"
       style="fill:#ffffff" />
    <path
       d="m 324.8,320.88 c -5.0391,-2.2383 -11.199,-2.8008 -16.238,-0.55859 l -50.398,18.48 33.602,-28 c 8.9609,-7.2812 10.078,-21.281 2.8008,-30.238 -7.8398,-8.9609 -21.281,-10.078 -30.238,-2.8008 l -59.93,49.84 c -7.8398,-5.6016 -18.48,-6.7188 -28,-2.8008 l -26.879,11.199 c -14.559,6.1602 -25.199,17.922 -30.238,32.48 l -12.32,36.398 -20.16,11.762 c -3.3594,1.6797 -4.4805,6.1602 -2.2383,8.9609 2.2383,2.8008 6.1602,4.4805 8.9609,2.2383 l 22.398,-12.879 c 1.6797,-0.55859 2.2383,-2.2383 2.8008,-3.9219 l 12.879,-38.641 c 3.9219,-11.199 11.762,-20.16 22.961,-24.641 l 26.879,-11.199 c 7.8398,-3.3594 16.238,0 20.719,6.7188 v 0.55859 l 16.801,30.238 c 2.2383,3.9219 0.55859,8.3984 -2.8008,10.641 -1.6797,1.6836 -3.9219,1.6836 -6.1602,1.125 -2.2383,-0.5586 -3.9219,-2.2383 -4.4805,-3.9219 l -11.199,-21.281 c -1.6797,-2.8008 -5.0391,-4.4805 -8.3984,-3.3594 l -14,5.6016 c -3.3594,1.1211 -5.0391,5.0391 -3.9219,8.3984 1.1211,3.3594 5.0391,5.0391 8.3984,3.9219 l 7.2812,-2.8008 c 2.2383,25.762 -18.48,35.84 -19.602,36.398 -3.3594,1.6797 -5.0391,5.6016 -3.3594,8.9609 0,0 0,0.55859 0.55859,0.55859 1.6797,2.8008 5.6016,4.4805 8.3984,2.8008 8.3984,-3.9219 20.719,-14 25.762,-30.238 2.8008,3.3594 6.7188,6.1602 11.199,7.2812 2.2383,0.55859 4.4805,1.1211 7.2812,0.55859 0,2.8008 0,6.1602 1.1211,8.9609 0.55859,1.1211 1.1211,2.2383 1.6797,3.3594 2.8008,4.4805 7.2812,7.8398 11.762,9.5195 -1.6797,5.043 -1.6797,9.5195 0,14 0.55859,1.1211 1.1211,2.2383 1.6797,3.3594 1.6797,2.8008 3.9219,5.0391 6.1602,6.7188 -14,11.199 -29.121,20.16 -40.32,26.879 -10.641,6.1602 -23.52,6.1602 -34.719,0.55859 l -6.7188,-3.3594 c -2.2383,-1.1211 -4.4805,-1.1211 -6.7188,0 l -22.965,12.887 c -3.3594,1.6797 -4.4805,6.1602 -2.2383,8.9609 1.6797,3.3594 6.1602,4.4805 8.9609,2.2383 l 20.16,-11.762 3.3594,1.6797 c 15.121,7.8398 33.039,7.8398 47.602,-0.55859 14,-7.8398 33.602,-20.16 50.398,-34.719 1.1211,0 1.6797,-0.55859 2.8008,-0.55859 l 21.281,-7.8398 c 11.199,-3.9219 16.801,-16.238 12.879,-27.441 -1.6797,-4.4805 -4.4805,-7.8398 -8.3984,-10.078 0.55859,-0.55859 1.1211,-1.6797 1.6797,-2.2383 2.2383,-5.0391 2.8008,-11.199 0.55859,-16.238 -1.1211,-2.8008 -2.2383,-5.0391 -3.9219,-6.7188 l 43.121,-15.68 c 5.6016,-1.6797 9.5195,-5.6016 12.32,-11.199 2.2383,-5.0391 2.8008,-11.199 0.55859,-16.238 -2.2383,-5.6094 -6.1602,-9.5312 -11.199,-12.332 z m -110.88,16.801 c 0,0 0,-0.55859 -0.55859,-0.55859 l 58.801,-49.281 c 3.3594,-2.8008 8.3984,-2.2383 11.199,1.1211 0.55859,0.55859 0.55859,0.55859 0.55859,1.1211 1.6797,3.3594 1.1211,7.8398 -1.6797,10.078 l -61.039,50.961 z m 17.359,70.559 c -1.6797,-1.1211 -3.3594,-2.2383 -3.9219,-4.4805 -1.6797,-3.9219 0.55859,-8.9609 4.4805,-10.078 l 29.121,-10.641 c 2.2383,-0.55859 3.9219,-0.55859 6.1602,0 1.6797,0.55859 2.8008,1.6797 3.3594,3.3594 0,0.55859 0.55859,0.55859 0.55859,1.1211 0.55859,2.2383 0.55859,3.9219 -0.55859,6.1602 -1.1211,1.6797 -2.2383,3.3594 -4.4805,3.9219 l -29.121,10.641 c -1.6797,1.1172 -3.918,1.1172 -5.5977,-0.004 z m 45.918,14.562 c -1.1211,1.6797 -2.2383,3.3594 -4.4805,3.9219 l -21.281,7.8398 c -2.2383,0.55859 -3.9219,0.55859 -6.1602,0 -2.2383,-0.55859 -3.3594,-2.2383 -3.9219,-4.4805 -0.55859,-2.2383 -0.55859,-3.9219 0,-6.1602 1.1211,-1.6797 2.8008,-3.3594 4.4805,-3.9219 l 21.281,-7.8398 c 3.9219,-1.6797 8.9609,0.55859 10.078,4.4805 1.125,2.2383 1.125,3.918 0.004,6.1602 z m 45.359,-78.961 c -1.1211,1.6797 -2.2383,3.3594 -4.4805,3.9219 l -85.121,30.801 c 0,-3.3594 -0.55859,-7.2812 -2.2383,-10.641 l -2.2383,-4.4805 84.559,-30.801 c 2.2383,-0.55859 3.9219,-0.55859 6.1602,0 1.6797,1.1211 3.3594,2.2383 3.9219,4.4805 0.55859,2.8008 0.55859,4.4805 -0.5625,6.7188 z"
       id="path354"
       style="fill:#ffffff" />
    <path
       d="M 612.64,411.6 593.038,400.401 582.96,367.362 c -4.4805,-15.68 -15.121,-28.559 -29.68,-36.398 l -42,-22.398 c -10.078,-5.6016 -22.398,-2.2383 -28.559,7.8398 -0.55859,0.55859 -0.55859,1.6797 -1.1211,2.2383 l -45.359,-25.199 c -10.078,-5.6016 -23.52,-2.2383 -29.121,7.8398 -1.6797,2.8008 -2.2383,6.1602 -2.8008,9.5195 -8.3984,-1.1211 -16.801,2.8008 -21.281,10.641 -4.4805,7.8398 -3.3594,17.359 1.6797,23.52 -2.8008,1.6797 -5.0391,3.9219 -6.7188,7.2812 -5.6016,10.078 -2.2383,23.52 7.8398,29.121 l 7.8398,4.4805 c -2.2383,1.6797 -3.9219,3.9219 -5.0391,6.1602 -5.6016,10.078 -2.2383,23.52 7.8398,29.121 l 28.559,16.238 c 6.7188,3.9219 14,8.3984 21.84,15.121 l 1.1211,0.55859 c 17.922,14 64.961,50.398 99.121,28.559 l 19.602,11.199 c 3.3594,1.6797 7.2812,0.55859 8.9609,-2.8008 1.6797,-3.3594 0.55859,-7.2812 -2.8008,-8.9609 l -22.961,-12.879 c -2.2383,-1.1211 -5.0391,-1.1211 -7.2812,0.55859 -26.32,20.719 -70,-13.441 -86.801,-26.32 l -1.1211,-0.55859 c -8.3984,-6.7188 -16.238,-11.762 -23.52,-15.68 l -28.559,-16.238 c -3.9219,-2.2383 -5.0391,-6.7188 -2.8008,-10.641 2.2383,-3.9219 7.2812,-5.0391 10.641,-2.8008 l 42,23.52 c 3.3594,1.6797 7.2812,0.55859 8.9609,-2.8008 1.6797,-3.3594 0.55859,-7.2812 -2.8008,-8.9609 l -65.52,-38.641 c -3.9219,-2.2383 -5.0391,-7.2812 -2.8008,-10.641 2.2383,-3.9219 6.7188,-5.0391 10.641,-2.8008 l 57.68,32.48 c 3.3594,1.6797 7.2812,0.55859 8.9609,-2.2383 1.6797,-3.3594 0.55859,-7.2812 -2.8008,-8.9609 l -67.199,-38.078 c -3.9219,-2.2383 -5.0391,-7.2812 -2.8008,-10.641 2.2383,-3.9219 7.2812,-5.0391 10.641,-2.8008 l 62.16,35.281 c 3.3594,1.6797 7.2812,0.55859 8.9609,-2.8008 1.6797,-3.35939 0.55859,-7.2812 -2.8008,-8.9609 l -52.641,-29.68 c -3.9219,-2.2383 -5.0391,-7.2812 -2.8008,-10.641 2.2383,-3.9219 6.7188,-5.0391 10.641,-2.8008 l 50.398,28.559 c 1.6797,5.6016 5.0391,10.641 10.078,13.441 l 14.559,8.3984 c -11.762,47.039 25.199,62.719 25.762,62.719 3.3594,1.1211 6.7188,0 8.3984,-2.8008 0,0 0,-0.55859 0.55859,-0.55859 1.1211,-3.3594 -0.55859,-7.2812 -3.9219,-8.3984 -1.1211,-0.55859 -25.199,-10.641 -19.039,-43.121 1.6797,1.1211 3.9219,2.8008 5.6016,4.4805 l 3.3594,2.8008 c 2.8008,2.2383 6.7188,2.2383 9.5195,-0.55859 2.2383,-2.8008 2.2383,-6.7188 -0.55859,-9.5195 l -3.3594,-2.8008 c -3.3555,-6.1602 -7.2773,-9.5195 -12.316,-11.762 l -21.281,-12.32 c -2.2383,-1.1211 -3.3594,-2.8008 -3.9219,-5.0391 -0.55859,-2.2383 0,-4.4805 1.1211,-6.1602 2.2383,-3.9219 7.2812,-5.0391 10.641,-2.8008 l 42,22.398 c 11.199,6.1602 19.602,16.238 23.52,28.559 l 10.641,35.84 c 0.55859,1.6797 1.6797,2.8008 3.3594,3.9219 l 21.84,12.32 c 3.3594,1.6797 7.2812,0.55859 8.9609,-2.8008 2.2422,-3.3555 1.1211,-7.8359 -2.2383,-9.5156 z"
       id="path356"
       style="fill:#ffffff" />
  </g>
</svg>
