<?xml version="1.0" encoding="UTF-8" standalone="no"?>
<svg
   width="198.93488pt"
   height="155.21637pt"
   version="1.1"
   viewBox="0 0 198.93488 155.21637"
   id="svg438"
   sodipodi:docname="noun-game-3971461.svg"
   inkscape:version="1.2.1 (9c6d41e410, 2022-07-14)"
   inkscape:export-filename="rock2.svg"
   inkscape:export-xdpi="96"
   inkscape:export-ydpi="96"
   xmlns:inkscape="http://www.inkscape.org/namespaces/inkscape"
   xmlns:sodipodi="http://sodipodi.sourceforge.net/DTD/sodipodi-0.dtd"
   xmlns="http://www.w3.org/2000/svg"
   xmlns:svg="http://www.w3.org/2000/svg">
  <sodipodi:namedview
     id="namedview440"
     pagecolor="#ffffff"
     bordercolor="#ffffff"
     borderopacity="1"
     inkscape:showpageshadow="2"
     inkscape:pageopacity="0.0"
     inkscape:pagecheckerboard="0"
     inkscape:deskcolor="#b5b5b5"
     inkscape:document-units="pt"
     showgrid="false"
     inkscape:zoom="0.39803571"
     inkscape:cx="-656.97622"
     inkscape:cy="192.19381"
     inkscape:window-width="1920"
     inkscape:window-height="1001"
     inkscape:window-x="-9"
     inkscape:window-y="-9"
     inkscape:window-maximized="1"
     inkscape:current-layer="svg438" />
  <defs
     id="defs350" />
  <path
     d="m 9.0528163,52.023081 c -3.3286,-5.0595 -4.9673,-11.79252 -2.688,-18.49674 2.8554,-8.94365 11.8539997,-15.04897 21.3727997,-14.9909 l 19.6017,0.11958 c 4.5282,-7.81232 12.4017,-13.3655899 21.9284,-14.4254899 l 28.5824,-3.74761004 C 112.98442,-1.6640889 128.63342,3.4705711 140.32972,13.620311 l 28.9667,25.37618 22.9606,0.14007 c 3.9218,0.0239 6.7016,2.84173 6.6777,6.75966 -0.024,3.92183 -2.8417,6.70159 -6.7597,6.67769 l -25.7615,-0.15716 c -1.6797,-0.0103 -3.3559,-0.57907 -4.4702,-1.707 l -30.6364,-27.0664 c -8.9129,-7.89432 -20.0913,-11.32177 -31.863404,-9.71406 l -28.5823,3.74761 c -8.4051,1.06984 -14.61,8.30943 -14.1023,16.71528 l 0.3468,34.72176 c -0.027,4.48042 3.3115,7.86015 7.7918,7.88748 2.2383,0.0136 3.9287,-1.09715 5.6152,-2.20409 1.6899,-1.66942 2.2587,-3.34568 2.2724,-5.58784 l -0.9776,-23.5264 c 0.02,-3.35934 2.2759,-6.14643 5.6425,-6.6845 l 15.1344,-2.14602 c 3.9252,-0.53465 7.2674,2.28268 7.805504,5.64933 0.538,3.36274 -2.282704,7.26741 -5.649404,7.80548 l -7.8465,1.07325 c 11.0553,23.58788 34.026204,22.04798 35.147104,22.05482 3.9253,-0.53465 6.7051,2.27925 7.2435,6.20451 v 0.55858 c -0.021,3.35933 -2.8383,6.143 -6.201,6.68109 -9.5262,1.06301 -25.188304,-1.83339 -37.437304,-13.66964 -0.586,4.47701 -2.293,8.94708 -5.6767,12.2856 -1.6899,1.66943 -3.3764,2.78026 -5.0629,3.89109 2.2177,3.37299 3.3149,7.30156 3.2876,11.782279 -0.041,6.71867 -3.4379,12.85826 -8.5008,16.74944 2.7803,3.37643 3.874,7.86358 3.8467,12.3437 -0.02,3.35934 -0.5962,6.15668 -2.2929,8.94708 19.0181,3.47548 38.616304,4.15755 52.616104,4.24296 12.3197,0.0751 23.5605,-6.5752 30.3399,-16.61623 l 3.9594,-6.13616 c 1.1347,-2.23142 3.3798,-3.33884 5.622,-3.32516 l 26.8785,0.16397 c 3.9218,0.0239 6.7016,2.84173 6.6777,6.75966 -0.024,3.92183 -2.8418,6.70159 -6.7597,6.67769 l -22.9606,-0.14007 -0.5693,1.11375 c -9.0495,14.50406 -24.7806,22.81025 -41.5837,23.26675 -17.3586,-0.10589 -42.554804,-0.8182 -65.481204,-6.55978 -2.2416,0.54492 -4.4872,1.09375 -6.7255,1.08009 l -21.8396,-0.13323 c -11.7618,-0.0718 -22.3394997,-9.65596 -22.2676997,-21.41724 0.031,-5.03901 1.7342997,-8.95049 4.0003997,-12.85484 -5.0150997,-3.95256 -8.3367997,-10.12904 -8.2957997,-16.851909 0.027,-4.48042 1.7343,-8.95049 3.997,-12.29585 -5.0151,-3.95257 -8.8993,-10.13248 -8.85479999875,-17.41334 C 0.5960163,62.051051 3.9930163,55.911361 9.0558163,52.024171 Z m 34.7462997,-3.71 -0.4766,-13.44416 0.014,-2.23826 -16.8007,-0.10249 c -4.4804,-0.0273 -7.8602,3.31151 -7.8875,7.79183 -0.027,4.48042 3.3115,7.86015 7.7918,7.88748 z m -13.3161,71.600089 c -4.4804,-0.0273 -7.8601,3.31152 -7.8875,7.79183 -0.027,4.48032 3.3116,7.86015 7.7919,7.88748 l 22.9605,0.14007 c 4.4805,0.0273 7.8602,-3.31151 7.8875,-7.79183 0.027,-4.48031 -3.3115,-7.86014 -7.7918,-7.88748 z m -3.7442,-29.140379 c -4.4804,-0.0273 -7.8601,3.31152 -7.8875,7.79183 -0.027,4.480419 3.3116,7.860149 7.7919,7.887479 l 30.8004,0.1879 c 4.4804,0.0273 7.8601,-3.31151 7.8875,-7.791829 0.027,-4.48041 -3.3115,-7.86015 -7.7918,-7.88748 z m -4.957,-13.47149 24.0776,0.14689 c -1.104,-2.80759 -1.6455,-5.61174 -2.1871,-8.4119 l 0.044,-7.28106 -21.8396,-0.13324 c -4.4804,-0.0273 -7.8601,3.31152 -7.8874,7.79183 -0.027,4.48032 3.3115,7.86015 7.7918,7.88748 z"
     id="path920"
     inkscape:export-filename=".\rock2.svg"
     inkscape:export-xdpi="96"
     inkscape:export-ydpi="96"
     style="fill:#ffffff" />
</svg>
