<?xml version="1.0" encoding="UTF-8" standalone="no"?>
<svg
   width="264.25555pt"
   height="153.87006pt"
   version="1.1"
   viewBox="0 0 264.25555 153.87006"
   id="svg438"
   sodipodi:docname="noun-game-3971461.svg"
   inkscape:version="1.2.1 (9c6d41e410, 2022-07-14)"
   inkscape:export-filename="rock2.svg"
   inkscape:export-xdpi="96"
   inkscape:export-ydpi="96"
   xmlns:inkscape="http://www.inkscape.org/namespaces/inkscape"
   xmlns:sodipodi="http://sodipodi.sourceforge.net/DTD/sodipodi-0.dtd"
   xmlns="http://www.w3.org/2000/svg"
   xmlns:svg="http://www.w3.org/2000/svg">
  <sodipodi:namedview
     id="namedview440"
     pagecolor="#ffffff"
     bordercolor="#ffffff"
     borderopacity="1"
     inkscape:showpageshadow="2"
     inkscape:pageopacity="0.0"
     inkscape:pagecheckerboard="0"
     inkscape:deskcolor="#b5b5b5"
     inkscape:document-units="pt"
     showgrid="false"
     inkscape:zoom="0.39803571"
     inkscape:cx="-656.97622"
     inkscape:cy="192.19381"
     inkscape:window-width="1920"
     inkscape:window-height="1001"
     inkscape:window-x="-9"
     inkscape:window-y="-9"
     inkscape:window-maximized="1"
     inkscape:current-layer="svg438" />
  <defs
     id="defs350" />
  <path
     d="m 3.7839167,74.966258 c 3.24484,-4.45798 8.2982203,-8.02507 13.7832303,-8.60276 l 52.88595,-9.19485 -43.10019,-7.44771 C 15.951937,47.895688 7.9846067,36.330048 9.8083467,24.934458 12.117357,13.254198 23.199227,5.5661581 34.594817,7.3898981 L 111.41573,20.587608 c 3.98866,-8.77103 12.64474,-15.0586499 22.84831,-16.4255699 L 163.14143,0.42115809 C 178.83,-1.5234519 193.92541,3.3425681 205.56831,13.430668 l 28.86843,25.36159 23.34007,0.10619 c 3.74918,-0.22504 6.96033,3.09464 6.41888,6.64122 -0.53803,3.54471 -3.09464,6.96032 -6.64122,6.41887 l -25.83673,0.0455 c -1.73396,0.3561 -3.05758,-0.81927 -4.38652,-1.99606 l -30.47404,-27.02459 c -8.99596,-7.73767 -20.26619,-11.57807 -32.20531,-9.85923 l -28.8774,3.74088 c -8.46916,1.01057 -14.06252,8.119 -14.58378,16.17815 l 0.2793,0.48375 0.56891,34.58738 c 0.0225,4.51561 3.71543,7.55253 7.74606,7.81497 2.29646,0.61819 4.23827,-0.50291 5.89739,-2.10582 1.65912,-1.60291 2.27731,-3.89937 1.91928,-5.63671 l -0.94188,-24.02939 c 0.0543,-3.26541 2.12373,-6.39978 5.59352,-7.10852 l 14.92516,-2.14888 c 3.46987,-0.7088 6.88354,1.84444 7.59566,5.31228 0.7088,3.46988 -1.84444,6.88354 -5.31227,7.59567 l -7.70611,1.21503 c 10.94258,23.4297 33.92415,21.79835 35.17483,21.72059 3.74918,-0.22503 7.16479,2.33158 7.38978,6.08067 0,0 0.27929,0.48375 -0.20447,0.76305 -0.0543,3.26542 -2.61088,6.68103 -5.87283,6.62477 -9.23418,0.80273 -24.94318,-1.76486 -37.42954,-13.30588 -0.74587,4.30973 -2.73856,8.69429 -6.05802,11.90521 -1.65913,1.6029 -3.31968,3.21115 -6.02641,4.12435 1.4004,2.42556 3.0801,5.33489 3.50955,8.32092 0.0768,1.2502 0.14825,2.49897 0.22503,3.74917 -0.18531,5.280632 -2.3858,10.430072 -5.42644,14.125132 3.97617,3.52752 6.21442,7.40428 7,12.12436 0.0768,1.2502 0.14825,2.49897 0.22504,3.74917 -0.0543,3.26542 -0.87691,6.32494 -1.97549,8.89875 17.72386,2.69862 35.29953,2.89858 48.35765,3.1179 12.29547,0.0144 23.44901,-6.42511 30.34683,-16.87575 l 4.13895,-6.26872 c 1.37787,-2.09005 3.31967,-3.21115 5.81865,-3.3594 l 26.33177,-0.32203 c 3.74918,-0.22504 6.96033,3.09464 6.41888,6.64122 0.22503,3.74917 -3.09464,6.96032 -6.64122,6.41887 l -23.34007,-0.10619 -2.06948,3.13436 c -9.17527,14.34997 -24.69271,23.30897 -41.50383,23.31725 -16.04426,0.21053 -39.18019,-0.65807 -61.00545,-4.86854 -0.9709,0.56055 -1.73396,0.3561 -2.70486,0.91665 l -22.34979,3.85103 c -11.659573,2.20304 -22.669093,-5.66202 -24.874043,-17.3251 -0.78559,-4.72008 -0.0397,-9.02972 2.23423,-12.927 -0.76306,-0.20446 -1.81075,-0.89412 -2.57381,-1.09858 -4.45798,-3.24484 -8.02507,-8.29822 -8.60277,-13.78322 -0.42949,-2.98611 -0.58112,-5.48314 0.0371,-7.7796 l -45.18388,7.98122 c -5.69098,1.34614 -11.04493,-0.0914 -16.2689303,-3.53862 -4.45798,-3.24484 -8.02506996,-8.298222 -8.60276996,-13.783222 -0.86627,-5.97703 0.56929,-11.33436 3.53261996,-16.27932 z M 108.20932,34.076348 c 0,0 -0.2793,-0.48375 0.20438,-0.763 l -75.563663,-13.2781 c -4.30973,-0.74587 -8.39238,2.26077 -9.13807,6.5704 -0.20438,0.763 -0.20438,0.763 0.0769,1.25015 0.22503,3.74918 2.949,7.35002 6.49366,7.88795 l 78.341823,13.61402 z m 20.24616,69.785382 c 0.89412,-1.81075 1.79018,-3.61812 1.15622,-5.841172 -0.50629,-4.23632 -4.96421,-7.48107 -8.91923,-6.48756 l -30.540023,5.34513 c -2.21772,0.63539 -3.67576,1.47719 -5.33489,3.0801 -1.17537,1.323602 -1.58572,2.855062 -1.22963,4.589022 0.2793,0.48376 -0.20447,0.76306 0.0768,1.2502 0.63539,2.21773 1.47719,3.67577 3.56386,5.05559 1.81075,0.89412 3.61813,1.79018 5.84118,1.15622 l 30.540023,-5.34512 c 2.01327,0.12767 3.95169,-0.99148 4.84575,-2.80232 z M 95.970327,139.4318 c 1.81075,0.89411 3.61812,1.79017 5.841183,1.15621 l 22.34978,-3.85103 c 2.21772,-0.6354 3.67576,-1.4772 5.33489,-3.0801 1.65913,-1.60291 1.79018,-3.61813 1.15622,-5.84118 -0.63548,-2.21767 -1.47728,-3.67571 -3.0801,-5.33489 -1.81075,-0.89411 -4.10527,-1.50892 -5.84118,-1.15621 l -22.349793,3.85103 c -4.23631,0.50629 -7.48107,4.9642 -6.48755,8.91923 0.14487,2.50092 0.98472,3.95558 3.0801,5.33489 z M 17.207777,93.729058 c 1.81075,0.89412 3.61813,1.79018 5.84118,1.15622 l 89.117453,-15.88605 c -1.6797,-2.90933 -3.15693,-6.58496 -3.38208,-10.33453 l -0.30182,-4.99937 -88.630743,15.60505 c -2.21772,0.63539 -3.67576,1.47719 -5.33489,3.0801 -0.89412,1.81075 -1.79018,3.61812 -1.15622,5.84117 0.91664,2.70487 1.75649,4.15953 3.84654,5.53741 z"
     id="path922"
     inkscape:export-filename="scissors2.svg"
     inkscape:export-xdpi="96"
     inkscape:export-ydpi="96"
     style="fill:#ffffff" />
</svg>
