<?xml version="1.0" encoding="UTF-8" standalone="no"?>
<svg
   width="264.25562pt"
   height="153.87006pt"
   version="1.1"
   viewBox="0 0 264.25562 153.87006"
   id="svg438"
   sodipodi:docname="noun-game-3971461.svg"
   inkscape:version="1.2.1 (9c6d41e410, 2022-07-14)"
   inkscape:export-filename="rock2.svg"
   inkscape:export-xdpi="96"
   inkscape:export-ydpi="96"
   xmlns:inkscape="http://www.inkscape.org/namespaces/inkscape"
   xmlns:sodipodi="http://sodipodi.sourceforge.net/DTD/sodipodi-0.dtd"
   xmlns="http://www.w3.org/2000/svg"
   xmlns:svg="http://www.w3.org/2000/svg">
  <sodipodi:namedview
     id="namedview440"
     pagecolor="#ffffff"
     bordercolor="#ffffff"
     borderopacity="1"
     inkscape:showpageshadow="2"
     inkscape:pageopacity="0.0"
     inkscape:pagecheckerboard="0"
     inkscape:deskcolor="#b5b5b5"
     inkscape:document-units="pt"
     showgrid="false"
     inkscape:zoom="0.39803571"
     inkscape:cx="-656.97622"
     inkscape:cy="192.19381"
     inkscape:window-width="1920"
     inkscape:window-height="1001"
     inkscape:window-x="-9"
     inkscape:window-y="-9"
     inkscape:window-maximized="1"
     inkscape:current-layer="svg438" />
  <defs
     id="defs350" />
  <path
     d="m 260.47172,74.966258 c -3.24484,-4.45798 -8.29819,-8.02507 -13.78319,-8.60276 l -52.886,-9.19485 43.1002,-7.44771 c 11.401,-1.82525 19.3683,-13.39089 17.54456,-24.78648 C 252.13823,13.254198 241.05643,5.5661581 229.66083,7.3898981 l -76.8209,13.1977099 c -3.9887,-8.77103 -12.6448,-15.0586499 -22.8483,-16.4255699 L 101.11423,0.42115809 C 85.42563,-1.5234519 70.33023,3.3425681 58.68733,13.430668 l -28.8684,25.36159 -23.3401001,0.10619 c -3.7492,-0.22504 -6.96029999,3.09464 -6.41889999,6.64122 0.538,3.54471 3.09469999,6.96032 6.64119999,6.41887 l 25.8368001,0.0455 c 1.7339,0.3561 3.0575,-0.81927 4.3865,-1.99606 l 30.474,-27.02459 c 8.996,-7.73767 20.2662,-11.57807 32.2053,-9.85923 l 28.8774,3.74088 c 8.4692,1.01057 14.0626,8.119 14.5838,16.17815 l -0.2793,0.48375 -0.5689,34.58738 c -0.023,4.51561 -3.7154,7.55253 -7.7461,7.81497 -2.2964,0.6182 -4.2382,-0.5029 -5.8973,-2.10582 -1.6592,-1.60291 -2.2774,-3.89937 -1.9193,-5.63671 l 0.9419,-24.02939 c -0.054,-3.26541 -2.1238,-6.39978 -5.5936,-7.10852 l -14.9251,-2.14888 c -3.4699,-0.7088 -6.8836,1.84444 -7.5957,5.31228 -0.7088,3.46988 1.8445,6.88354 5.3123,7.59567 l 7.7061,1.21503 c -10.9426,23.4297 -33.9242,21.79835 -35.1748,21.7206 -3.7492,-0.22504 -7.1648,2.33157 -7.3898,6.08066 0,0 -0.2793,0.48376 0.2045,0.76306 0.054,3.26541 2.6108,6.68102 5.8728,6.62476 9.2342,0.80273 24.9432,-1.76486 37.4295,-13.30588 0.7459,4.30973 2.7386,8.69429 6.0581,11.90521 1.6591,1.6029 3.3196,3.21115 6.0264,4.12435 -1.4004,2.42556 -3.0801,5.33489 -3.5096,8.32092 -0.077,1.2502 -0.1482,2.49897 -0.225,3.74917 0.1853,5.280632 2.3858,10.430072 5.4264,14.125132 -3.9761,3.52752 -6.2144,7.40428 -7,12.12436 -0.077,1.2502 -0.1482,2.49897 -0.225,3.74917 0.054,3.26542 0.8769,6.32494 1.9755,8.89876 -17.7239,2.69861 -35.2996,2.89857 -48.3577,3.11789 -12.2955,0.0144 -23.449,-6.42511 -30.3468,-16.87575 l -4.139,-6.26872 c -1.3778,-2.09005 -3.3196,-3.21115 -5.8186,-3.3594 L 6.9750299,114.19521 c -3.7492,-0.22504 -6.96029999,3.09464 -6.41889999,6.64122 -0.225,3.74917 3.09469999,6.96032 6.64129999,6.41887 l 23.3400001,-0.10619 2.0695,3.13436 c 9.1753,14.34997 24.6927,23.30897 41.5038,23.31725 16.0443,0.21053 39.1802,-0.65807 61.0055,-4.86854 0.9709,0.56055 1.7339,0.3561 2.7049,0.91665 l 22.3497,3.85103 c 11.6596,2.20304 22.6691,-5.66202 24.8741,-17.3251 0.7856,-4.72008 0.04,-9.02971 -2.2342,-12.927 0.763,-0.20446 1.8107,-0.89412 2.5738,-1.09858 4.4579,-3.24484 8.025,-8.29822 8.6027,-13.78322 0.4295,-2.98611 0.5812,-5.48314 -0.037,-7.7796 l 45.1838,7.98122 c 5.691,1.34614 11.045,-0.0914 16.26897,-3.53862 4.45798,-3.24484 8.02507,-8.298212 8.60276,-13.783222 0.86627,-5.97703 -0.56928,-11.33436 -3.53261,-16.27932 z M 156.04633,34.076348 c 0,0 0.2793,-0.48375 -0.2044,-0.763 l 75.5637,-13.2781 c 4.3097,-0.74587 8.3923,2.26077 9.138,6.5704 0.2044,0.763 0.2044,0.763 -0.077,1.25015 -0.2251,3.74918 -2.949,7.35002 -6.4937,7.88795 l -78.3418,13.61402 z m -20.2462,69.785392 c -0.8941,-1.81076 -1.7902,-3.61813 -1.1562,-5.841182 0.5063,-4.23632 4.9642,-7.48107 8.9192,-6.48756 l 30.5401,5.34513 c 2.2177,0.6354 3.6757,1.4772 5.3349,3.0801 1.1753,1.323602 1.5857,2.855062 1.2296,4.589022 -0.2793,0.48376 0.2044,0.76306 -0.077,1.2502 -0.6354,2.21773 -1.4772,3.67577 -3.5639,5.05559 -1.8107,0.89412 -3.6181,1.79018 -5.8411,1.15622 l -30.5401,-5.34512 c -2.0132,0.12767 -3.9517,-0.99148 -4.8457,-2.80232 z m 32.4852,35.57006 c -1.8108,0.89411 -3.6181,1.79017 -5.8412,1.15621 l -22.3498,-3.85103 c -2.2177,-0.6354 -3.6757,-1.4772 -5.3349,-3.0801 -1.6591,-1.6029 -1.7901,-3.61813 -1.1562,-5.84118 0.6355,-2.21767 1.4773,-3.67571 3.0801,-5.33489 1.8108,-0.89411 4.1053,-1.50892 5.8412,-1.15621 l 22.3498,3.85103 c 4.2363,0.50629 7.481,4.9642 6.4875,8.91923 -0.1448,2.50092 -0.9847,3.95559 -3.0801,5.33489 z m 78.7625,-45.702732 c -1.8107,0.89411 -3.6181,1.79017 -5.8412,1.15621 l -89.1174,-15.88605 c 1.6797,-2.90933 3.1569,-6.58496 3.3821,-10.33453 l 0.3018,-4.99937 88.6307,15.60505 c 2.2178,0.63539 3.6758,1.47719 5.3349,3.0801 0.8941,1.81075 1.7902,3.61812 1.1562,5.84117 -0.9166,2.70487 -1.7564,4.15953 -3.8465,5.53741 z"
     id="path914"
     inkscape:export-filename="scissors.svg"
     inkscape:export-xdpi="96"
     inkscape:export-ydpi="96"
     style="fill:#ffffff" />
</svg>
